
<global>
amp_veltrack=0
ampeg_attack=0.001
ampeg_release=1.5
</global>

<group>
group_label=RR1
seq_length=4
seq_position=1

<region>
hivel=25
key=D3
lovel=0
offset=4401
sample=Tenors_Solo_Drum_6_PuffyMallets_Hit_P_D4_RR1.opus
</region>

<region>
hivel=51
key=D3
lovel=26
offset=4499
sample=Tenors_Solo_Drum_6_PuffyMallets_Hit_MP_D4_RR1.opus
</region>

<region>
hivel=77
key=D3
lovel=52
offset=864
sample=Tenors_Solo_Drum_6_PuffyMallets_Hit_MF_D4_RR1.opus
</region>

<region>
hivel=127
key=D3
lovel=104
offset=620
sample=Tenors_Solo_Drum_6_PuffyMallets_Hit_FF_D4_RR1.opus
</region>

<region>
hivel=103
key=D3
lovel=78
offset=849
sample=Tenors_Solo_Drum_6_PuffyMallets_Hit_F_D4_RR1.opus
</region>

<region>
hivel=25
key=D#3
lovel=0
offset=5220
sample=Tenors_Solo_Drum_5_PuffyMallets_Hit_P_D4_RR1.opus
</region>

<region>
hivel=51
key=D#3
lovel=26
offset=4434
sample=Tenors_Solo_Drum_5_PuffyMallets_Hit_MP_D4_RR1.opus
</region>

<region>
hivel=77
key=D#3
lovel=52
offset=812
sample=Tenors_Solo_Drum_5_PuffyMallets_Hit_MF_D4_RR1.opus
</region>

<region>
hivel=127
key=D#3
lovel=104
offset=742
sample=Tenors_Solo_Drum_5_PuffyMallets_Hit_FF_D4_RR1.opus
</region>

<region>
hivel=103
key=D#3
lovel=78
offset=768
sample=Tenors_Solo_Drum_5_PuffyMallets_Hit_F_D4_RR1.opus
</region>

<region>
hivel=25
key=E3
lovel=0
offset=4547
sample=Tenors_Solo_Drum_4_PuffyMallets_Hit_P_D4_RR1.opus
</region>

<region>
hivel=51
key=E3
lovel=26
offset=4440
sample=Tenors_Solo_Drum_4_PuffyMallets_Hit_MP_D4_RR1.opus
</region>

<region>
hivel=77
key=E3
lovel=52
offset=826
sample=Tenors_Solo_Drum_4_PuffyMallets_Hit_MF_D4_RR1.opus
</region>

<region>
hivel=127
key=E3
lovel=104
offset=581
sample=Tenors_Solo_Drum_4_PuffyMallets_Hit_FF_D4_RR1.opus
</region>

<region>
hivel=103
key=E3
lovel=78
offset=831
sample=Tenors_Solo_Drum_4_PuffyMallets_Hit_F_D4_RR1.opus
</region>

<region>
hivel=25
key=F3
lovel=0
offset=4441
sample=Tenors_Solo_Drum_3_PuffyMallets_Hit_P_D4_RR1.opus
</region>

<region>
hivel=51
key=F3
lovel=26
offset=4462
sample=Tenors_Solo_Drum_3_PuffyMallets_Hit_MP_D4_RR1.opus
</region>

<region>
hivel=77
key=F3
lovel=52
offset=839
sample=Tenors_Solo_Drum_3_PuffyMallets_Hit_MF_D4_RR1.opus
</region>

<region>
hivel=127
key=F3
lovel=104
offset=828
sample=Tenors_Solo_Drum_3_PuffyMallets_Hit_FF_D4_RR1.opus
</region>

<region>
hivel=103
key=F3
lovel=78
offset=718
sample=Tenors_Solo_Drum_3_PuffyMallets_Hit_F_D4_RR1.opus
</region>

<region>
hivel=25
key=F#3
lovel=0
offset=4540
sample=Tenors_Solo_Drum_2_PuffyMallets_Hit_P_D4_RR1.opus
</region>

<region>
hivel=51
key=F#3
lovel=26
offset=4832
sample=Tenors_Solo_Drum_2_PuffyMallets_Hit_MP_D4_RR1.opus
</region>

<region>
hivel=77
key=F#3
lovel=52
offset=4192
sample=Tenors_Solo_Drum_2_PuffyMallets_Hit_MF_D4_RR1.opus
</region>

<region>
hivel=127
key=F#3
lovel=104
offset=715
sample=Tenors_Solo_Drum_2_PuffyMallets_Hit_FF_D4_RR1.opus
</region>

<region>
hivel=103
key=F#3
lovel=78
offset=857
sample=Tenors_Solo_Drum_2_PuffyMallets_Hit_F_D4_RR1.opus
</region>

<region>
hivel=25
key=G3
lovel=0
offset=4574
sample=Tenors_Solo_Drum_1_PuffyMallets_Hit_P_D4_RR1.opus
</region>

<region>
hivel=51
key=G3
lovel=26
offset=4655
sample=Tenors_Solo_Drum_1_PuffyMallets_Hit_MP_D4_RR1.opus
</region>

<region>
hivel=77
key=G3
lovel=52
offset=4670
sample=Tenors_Solo_Drum_1_PuffyMallets_Hit_MF_D4_RR1.opus
</region>

<region>
hivel=127
key=G3
lovel=104
offset=632
sample=Tenors_Solo_Drum_1_PuffyMallets_Hit_FF_D4_RR1.opus
</region>

<region>
hivel=103
key=G3
lovel=78
offset=4244
sample=Tenors_Solo_Drum_1_PuffyMallets_Hit_F_D4_RR1.opus
</region>
</group>

<group>
group_label=RR3
seq_length=4
seq_position=2

<region>
hivel=25
key=D3
lovel=0
offset=4363
sample=Tenors_Solo_Drum_6_PuffyMallets_Hit_P_D4_RR3.opus
</region>

<region>
hivel=51
key=D3
lovel=26
offset=4535
sample=Tenors_Solo_Drum_6_PuffyMallets_Hit_MP_D4_RR3.opus
</region>

<region>
hivel=77
key=D3
lovel=52
offset=728
sample=Tenors_Solo_Drum_6_PuffyMallets_Hit_MF_D4_RR3.opus
</region>

<region>
hivel=127
key=D3
lovel=104
offset=719
sample=Tenors_Solo_Drum_6_PuffyMallets_Hit_FF_D4_RR3.opus
</region>

<region>
hivel=103
key=D3
lovel=78
offset=711
sample=Tenors_Solo_Drum_6_PuffyMallets_Hit_F_D4_RR3.opus
</region>

<region>
hivel=25
key=D#3
lovel=0
offset=4719
sample=Tenors_Solo_Drum_5_PuffyMallets_Hit_P_D4_RR3.opus
</region>

<region>
hivel=51
key=D#3
lovel=26
offset=5394
sample=Tenors_Solo_Drum_5_PuffyMallets_Hit_MP_D4_RR3.opus
</region>

<region>
hivel=77
key=D#3
lovel=52
offset=858
sample=Tenors_Solo_Drum_5_PuffyMallets_Hit_MF_D4_RR3.opus
</region>

<region>
hivel=127
key=D#3
lovel=104
offset=630
sample=Tenors_Solo_Drum_5_PuffyMallets_Hit_FF_D4_RR3.opus
</region>

<region>
hivel=103
key=D#3
lovel=78
offset=857
sample=Tenors_Solo_Drum_5_PuffyMallets_Hit_F_D4_RR3.opus
</region>

<region>
hivel=25
key=E3
lovel=0
offset=2991
sample=Tenors_Solo_Drum_4_PuffyMallets_Hit_P_D4_RR3.opus
</region>

<region>
hivel=51
key=E3
lovel=26
offset=4289
sample=Tenors_Solo_Drum_4_PuffyMallets_Hit_MP_D4_RR3.opus
</region>

<region>
hivel=77
key=E3
lovel=52
offset=825
sample=Tenors_Solo_Drum_4_PuffyMallets_Hit_MF_D4_RR3.opus
</region>

<region>
hivel=127
key=E3
lovel=104
offset=716
sample=Tenors_Solo_Drum_4_PuffyMallets_Hit_FF_D4_RR3.opus
</region>

<region>
hivel=103
key=E3
lovel=78
offset=828
sample=Tenors_Solo_Drum_4_PuffyMallets_Hit_F_D4_RR3.opus
</region>

<region>
hivel=25
key=F3
lovel=0
offset=5314
sample=Tenors_Solo_Drum_3_PuffyMallets_Hit_P_D4_RR3.opus
</region>

<region>
hivel=51
key=F3
lovel=26
offset=4102
sample=Tenors_Solo_Drum_3_PuffyMallets_Hit_MP_D4_RR3.opus
</region>

<region>
hivel=77
key=F3
lovel=52
offset=818
sample=Tenors_Solo_Drum_3_PuffyMallets_Hit_MF_D4_RR3.opus
</region>

<region>
hivel=127
key=F3
lovel=104
offset=783
sample=Tenors_Solo_Drum_3_PuffyMallets_Hit_FF_D4_RR3.opus
</region>

<region>
hivel=103
key=F3
lovel=78
offset=621
sample=Tenors_Solo_Drum_3_PuffyMallets_Hit_F_D4_RR3.opus
</region>

<region>
hivel=25
key=F#3
lovel=0
offset=3744
sample=Tenors_Solo_Drum_2_PuffyMallets_Hit_P_D4_RR3.opus
</region>

<region>
hivel=51
key=F#3
lovel=26
offset=3565
sample=Tenors_Solo_Drum_2_PuffyMallets_Hit_MP_D4_RR3.opus
</region>

<region>
hivel=77
key=F#3
lovel=52
offset=5187
sample=Tenors_Solo_Drum_2_PuffyMallets_Hit_MF_D4_RR3.opus
</region>

<region>
hivel=127
key=F#3
lovel=104
offset=600
sample=Tenors_Solo_Drum_2_PuffyMallets_Hit_FF_D4_RR3.opus
</region>

<region>
hivel=103
key=F#3
lovel=78
offset=776
sample=Tenors_Solo_Drum_2_PuffyMallets_Hit_F_D4_RR3.opus
</region>

<region>
hivel=25
key=G3
lovel=0
offset=4482
sample=Tenors_Solo_Drum_1_PuffyMallets_Hit_P_D4_RR3.opus
</region>

<region>
hivel=51
key=G3
lovel=26
offset=5046
sample=Tenors_Solo_Drum_1_PuffyMallets_Hit_MP_D4_RR3.opus
</region>

<region>
hivel=77
key=G3
lovel=52
offset=3510
sample=Tenors_Solo_Drum_1_PuffyMallets_Hit_MF_D4_RR3.opus
</region>

<region>
hivel=127
key=G3
lovel=104
offset=4422
sample=Tenors_Solo_Drum_1_PuffyMallets_Hit_FF_D4_RR3.opus
</region>

<region>
hivel=103
key=G3
lovel=78
offset=4902
sample=Tenors_Solo_Drum_1_PuffyMallets_Hit_F_D4_RR3.opus
</region>
</group>

<group>
group_label=RR5
seq_length=4
seq_position=3

<region>
hivel=25
key=D3
lovel=0
offset=3978
sample=Tenors_Solo_Drum_6_PuffyMallets_Hit_P_D4_RR5.opus
</region>

<region>
hivel=51
key=D3
lovel=26
offset=3315
sample=Tenors_Solo_Drum_6_PuffyMallets_Hit_MP_D4_RR5.opus
</region>

<region>
hivel=77
key=D3
lovel=52
offset=740
sample=Tenors_Solo_Drum_6_PuffyMallets_Hit_MF_D4_RR5.opus
</region>

<region>
hivel=127
key=D3
lovel=104
offset=697
sample=Tenors_Solo_Drum_6_PuffyMallets_Hit_FF_D4_RR5.opus
</region>

<region>
hivel=103
key=D3
lovel=78
offset=719
sample=Tenors_Solo_Drum_6_PuffyMallets_Hit_F_D4_RR5.opus
</region>

<region>
hivel=25
key=D#3
lovel=0
offset=6199
sample=Tenors_Solo_Drum_5_PuffyMallets_Hit_P_D4_RR5.opus
</region>

<region>
hivel=51
key=D#3
lovel=26
offset=5429
sample=Tenors_Solo_Drum_5_PuffyMallets_Hit_MP_D4_RR5.opus
</region>

<region>
hivel=77
key=D#3
lovel=52
offset=839
sample=Tenors_Solo_Drum_5_PuffyMallets_Hit_MF_D4_RR5.opus
</region>

<region>
hivel=127
key=D#3
lovel=104
offset=737
sample=Tenors_Solo_Drum_5_PuffyMallets_Hit_FF_D4_RR5.opus
</region>

<region>
hivel=103
key=D#3
lovel=78
offset=823
sample=Tenors_Solo_Drum_5_PuffyMallets_Hit_F_D4_RR5.opus
</region>

<region>
hivel=25
key=E3
lovel=0
offset=3206
sample=Tenors_Solo_Drum_4_PuffyMallets_Hit_P_D4_RR5.opus
</region>

<region>
hivel=51
key=E3
lovel=26
offset=4444
sample=Tenors_Solo_Drum_4_PuffyMallets_Hit_MP_D4_RR5.opus
</region>

<region>
hivel=77
key=E3
lovel=52
offset=830
sample=Tenors_Solo_Drum_4_PuffyMallets_Hit_MF_D4_RR5.opus
</region>

<region>
hivel=127
key=E3
lovel=104
offset=578
sample=Tenors_Solo_Drum_4_PuffyMallets_Hit_FF_D4_RR5.opus
</region>

<region>
hivel=103
key=E3
lovel=78
offset=827
sample=Tenors_Solo_Drum_4_PuffyMallets_Hit_F_D4_RR5.opus
</region>

<region>
hivel=25
key=F3
lovel=0
offset=5321
sample=Tenors_Solo_Drum_3_PuffyMallets_Hit_P_D4_RR5.opus
</region>

<region>
hivel=51
key=F3
lovel=26
offset=3929
sample=Tenors_Solo_Drum_3_PuffyMallets_Hit_MP_D4_RR5.opus
</region>

<region>
hivel=77
key=F3
lovel=52
offset=839
sample=Tenors_Solo_Drum_3_PuffyMallets_Hit_MF_D4_RR5.opus
</region>

<region>
hivel=127
key=F3
lovel=104
offset=626
sample=Tenors_Solo_Drum_3_PuffyMallets_Hit_FF_D4_RR5.opus
</region>

<region>
hivel=103
key=F3
lovel=78
offset=787
sample=Tenors_Solo_Drum_3_PuffyMallets_Hit_F_D4_RR5.opus
</region>

<region>
hivel=25
key=F#3
lovel=0
offset=3974
sample=Tenors_Solo_Drum_2_PuffyMallets_Hit_P_D4_RR5.opus
</region>

<region>
hivel=51
key=F#3
lovel=26
offset=2189
sample=Tenors_Solo_Drum_2_PuffyMallets_Hit_MP_D4_RR5.opus
</region>

<region>
hivel=77
key=F#3
lovel=52
offset=1547
sample=Tenors_Solo_Drum_2_PuffyMallets_Hit_MF_D4_RR5.opus
</region>

<region>
hivel=127
key=F#3
lovel=104
offset=694
sample=Tenors_Solo_Drum_2_PuffyMallets_Hit_FF_D4_RR5.opus
</region>

<region>
hivel=103
key=F#3
lovel=78
offset=780
sample=Tenors_Solo_Drum_2_PuffyMallets_Hit_F_D4_RR5.opus
</region>

<region>
hivel=25
key=G3
lovel=0
offset=4404
sample=Tenors_Solo_Drum_1_PuffyMallets_Hit_P_D4_RR5.opus
</region>

<region>
hivel=51
key=G3
lovel=26
offset=4271
sample=Tenors_Solo_Drum_1_PuffyMallets_Hit_MP_D4_RR5.opus
</region>

<region>
hivel=77
key=G3
lovel=52
offset=4780
sample=Tenors_Solo_Drum_1_PuffyMallets_Hit_MF_D4_RR5.opus
</region>

<region>
hivel=127
key=G3
lovel=104
offset=777
sample=Tenors_Solo_Drum_1_PuffyMallets_Hit_FF_D4_RR5.opus
</region>

<region>
hivel=103
key=G3
lovel=78
offset=3784
sample=Tenors_Solo_Drum_1_PuffyMallets_Hit_F_D4_RR5.opus
</region>
</group>

<group>
group_label=RR7
seq_length=4
seq_position=4

<region>
hivel=25
key=D3
lovel=0
offset=4573
sample=Tenors_Solo_Drum_6_PuffyMallets_Hit_P_D4_RR7.opus
</region>

<region>
hivel=51
key=D3
lovel=26
offset=4556
sample=Tenors_Solo_Drum_6_PuffyMallets_Hit_MP_D4_RR7.opus
</region>

<region>
hivel=77
key=D3
lovel=52
offset=824
sample=Tenors_Solo_Drum_6_PuffyMallets_Hit_MF_D4_RR7.opus
</region>

<region>
hivel=127
key=D3
lovel=104
offset=702
sample=Tenors_Solo_Drum_6_PuffyMallets_Hit_FF_D4_RR7.opus
</region>

<region>
hivel=103
key=D3
lovel=78
offset=762
sample=Tenors_Solo_Drum_6_PuffyMallets_Hit_F_D4_RR7.opus
</region>

<region>
hivel=25
key=D#3
lovel=0
offset=4783
sample=Tenors_Solo_Drum_5_PuffyMallets_Hit_P_D4_RR7.opus
</region>

<region>
hivel=51
key=D#3
lovel=26
offset=5439
sample=Tenors_Solo_Drum_5_PuffyMallets_Hit_MP_D4_RR7.opus
</region>

<region>
hivel=77
key=D#3
lovel=52
offset=862
sample=Tenors_Solo_Drum_5_PuffyMallets_Hit_MF_D4_RR7.opus
</region>

<region>
hivel=127
key=D#3
lovel=104
offset=590
sample=Tenors_Solo_Drum_5_PuffyMallets_Hit_FF_D4_RR7.opus
</region>

<region>
hivel=103
key=D#3
lovel=78
offset=826
sample=Tenors_Solo_Drum_5_PuffyMallets_Hit_F_D4_RR7.opus
</region>

<region>
hivel=25
key=E3
lovel=0
offset=3549
sample=Tenors_Solo_Drum_4_PuffyMallets_Hit_P_D4_RR7.opus
</region>

<region>
hivel=51
key=E3
lovel=26
offset=3502
sample=Tenors_Solo_Drum_4_PuffyMallets_Hit_MP_D4_RR7.opus
</region>

<region>
hivel=77
key=E3
lovel=52
offset=766
sample=Tenors_Solo_Drum_4_PuffyMallets_Hit_MF_D4_RR7.opus
</region>

<region>
hivel=127
key=E3
lovel=104
offset=719
sample=Tenors_Solo_Drum_4_PuffyMallets_Hit_FF_D4_RR7.opus
</region>

<region>
hivel=103
key=E3
lovel=78
offset=827
sample=Tenors_Solo_Drum_4_PuffyMallets_Hit_F_D4_RR7.opus
</region>

<region>
hivel=25
key=F3
lovel=0
offset=5769
sample=Tenors_Solo_Drum_3_PuffyMallets_Hit_P_D4_RR7.opus
</region>

<region>
hivel=51
key=F3
lovel=26
offset=4739
sample=Tenors_Solo_Drum_3_PuffyMallets_Hit_MP_D4_RR7.opus
</region>

<region>
hivel=77
key=F3
lovel=52
offset=860
sample=Tenors_Solo_Drum_3_PuffyMallets_Hit_MF_D4_RR7.opus
</region>

<region>
hivel=127
key=F3
lovel=104
offset=627
sample=Tenors_Solo_Drum_3_PuffyMallets_Hit_FF_D4_RR7.opus
</region>

<region>
hivel=103
key=F3
lovel=78
offset=859
sample=Tenors_Solo_Drum_3_PuffyMallets_Hit_F_D4_RR7.opus
</region>

<region>
hivel=25
key=F#3
lovel=0
offset=4127
sample=Tenors_Solo_Drum_2_PuffyMallets_Hit_P_D4_RR7.opus
</region>

<region>
hivel=51
key=F#3
lovel=26
offset=2542
sample=Tenors_Solo_Drum_2_PuffyMallets_Hit_MP_D4_RR7.opus
</region>

<region>
hivel=77
key=F#3
lovel=52
offset=821
sample=Tenors_Solo_Drum_2_PuffyMallets_Hit_MF_D4_RR7.opus
</region>

<region>
hivel=127
key=F#3
lovel=104
offset=699
sample=Tenors_Solo_Drum_2_PuffyMallets_Hit_FF_D4_RR7.opus
</region>

<region>
hivel=103
key=F#3
lovel=78
offset=856
sample=Tenors_Solo_Drum_2_PuffyMallets_Hit_F_D4_RR7.opus
</region>

<region>
hivel=25
key=G3
lovel=0
offset=4570
sample=Tenors_Solo_Drum_1_PuffyMallets_Hit_P_D4_RR7.opus
</region>

<region>
hivel=51
key=G3
lovel=26
offset=4747
sample=Tenors_Solo_Drum_1_PuffyMallets_Hit_MP_D4_RR7.opus
</region>

<region>
hivel=77
key=G3
lovel=52
offset=4414
sample=Tenors_Solo_Drum_1_PuffyMallets_Hit_MF_D4_RR7.opus
</region>

<region>
hivel=127
key=G3
lovel=104
offset=4917
sample=Tenors_Solo_Drum_1_PuffyMallets_Hit_FF_D4_RR7.opus
</region>

<region>
hivel=103
key=G3
lovel=78
offset=4217
sample=Tenors_Solo_Drum_1_PuffyMallets_Hit_F_D4_RR7.opus
</region>
</group>

<group>
color=green
group_label=Alt_Hit_RR1
seq_length=2
seq_position=1

<region>
hivel=25
key=D8
lovel=0
offset=3310
sample=Tenors_Solo_Drum_6_PuffyMallets_Rim_Hit_P_D4_RR1.opus
</region>

<region>
hivel=25
key=D0
lovel=0
offset=3787
sample=Tenors_Solo_Drum_6_PuffyMallets_Skank_P_D4_RR1.opus
</region>

<region>
hivel=25
key=D7
lovel=0
offset=6368
sample=Tenors_Solo_Drum_6_PuffyMallets_Rim_Shot_P_D4_RR1.opus
</region>

<region>
hivel=25
key=D6
lovel=0
offset=2502
sample=Tenors_Solo_Drum_6_PuffyMallets_Dry_Buzz_Stroke_P_D4_RR1.opus
</region>

<region>
hivel=25
key=D5
lovel=0
offset=3576
sample=Tenors_Solo_Drum_6_PuffyMallets_Buzz_Stroke_P_D4_RR1.opus
</region>

<region>
hivel=25
key=D4
lovel=0
offset=4501
sample=Tenors_Solo_Drum_6_PuffyMallets_Muted_Hit_P_D4_RR1.opus
</region>

<region>
hivel=51
key=D8
lovel=26
offset=5238
sample=Tenors_Solo_Drum_6_PuffyMallets_Rim_Hit_MP_D4_RR1.opus
</region>

<region>
hivel=51
key=D0
lovel=26
offset=3237
sample=Tenors_Solo_Drum_6_PuffyMallets_Skank_MP_D4_RR1.opus
</region>

<region>
hivel=51
key=D7
lovel=26
offset=3297
sample=Tenors_Solo_Drum_6_PuffyMallets_Rim_Shot_MP_D4_RR1.opus
</region>

<region>
hivel=51
key=D6
lovel=26
offset=5274
sample=Tenors_Solo_Drum_6_PuffyMallets_Dry_Buzz_Stroke_MP_D4_RR1.opus
</region>

<region>
hivel=51
key=D5
lovel=26
offset=4473
sample=Tenors_Solo_Drum_6_PuffyMallets_Buzz_Stroke_MP_D4_RR1.opus
</region>

<region>
hivel=51
key=D4
lovel=26
offset=3465
sample=Tenors_Solo_Drum_6_PuffyMallets_Muted_Hit_MP_D4_RR1.opus
</region>

<region>
hivel=77
key=D8
lovel=52
offset=3166
sample=Tenors_Solo_Drum_6_PuffyMallets_Rim_Hit_MF_D4_RR1.opus
</region>

<region>
hivel=77
key=D0
lovel=52
offset=858
sample=Tenors_Solo_Drum_6_PuffyMallets_Skank_MF_D4_RR1.opus
</region>

<region>
hivel=77
key=D7
lovel=52
offset=837
sample=Tenors_Solo_Drum_6_PuffyMallets_Rim_Shot_MF_D4_RR1.opus
</region>

<region>
hivel=77
key=D6
lovel=52
offset=863
sample=Tenors_Solo_Drum_6_PuffyMallets_Dry_Buzz_Stroke_MF_D4_RR1.opus
</region>

<region>
hivel=77
key=D5
lovel=52
offset=717
sample=Tenors_Solo_Drum_6_PuffyMallets_Buzz_Stroke_MF_D4_RR1.opus
</region>

<region>
hivel=77
key=D4
lovel=52
offset=859
sample=Tenors_Solo_Drum_6_PuffyMallets_Muted_Hit_MF_D4_RR1.opus
</region>

<region>
hivel=127
key=D8
lovel=104
offset=4437
sample=Tenors_Solo_Drum_6_PuffyMallets_Rim_Hit_FF_D4_RR1.opus
</region>

<region>
hivel=127
key=D0
lovel=104
offset=623
sample=Tenors_Solo_Drum_6_PuffyMallets_Skank_FF_D4_RR1.opus
</region>

<region>
hivel=127
key=D7
lovel=104
offset=623
sample=Tenors_Solo_Drum_6_PuffyMallets_Rim_Shot_FF_D4_RR1.opus
</region>

<region>
hivel=127
key=D6
lovel=104
offset=861
sample=Tenors_Solo_Drum_6_PuffyMallets_Dry_Buzz_Stroke_FF_D4_RR1.opus
</region>

<region>
hivel=127
key=D5
lovel=104
offset=654
sample=Tenors_Solo_Drum_6_PuffyMallets_Buzz_Stroke_FF_D4_RR1.opus
</region>

<region>
hivel=127
key=D4
lovel=104
offset=737
sample=Tenors_Solo_Drum_6_PuffyMallets_Muted_Hit_FF_D4_RR1.opus
</region>

<region>
hivel=103
key=D8
lovel=78
offset=3423
sample=Tenors_Solo_Drum_6_PuffyMallets_Rim_Hit_F_D4_RR1.opus
</region>

<region>
hivel=103
key=D0
lovel=78
offset=823
sample=Tenors_Solo_Drum_6_PuffyMallets_Skank_F_D4_RR1.opus
</region>

<region>
hivel=103
key=D7
lovel=78
offset=847
sample=Tenors_Solo_Drum_6_PuffyMallets_Rim_Shot_F_D4_RR1.opus
</region>

<region>
hivel=103
key=D6
lovel=78
offset=821
sample=Tenors_Solo_Drum_6_PuffyMallets_Dry_Buzz_Stroke_F_D4_RR1.opus
</region>

<region>
hivel=103
key=D5
lovel=78
offset=603
sample=Tenors_Solo_Drum_6_PuffyMallets_Buzz_Stroke_F_D4_RR1.opus
</region>

<region>
hivel=103
key=D4
lovel=78
offset=737
sample=Tenors_Solo_Drum_6_PuffyMallets_Muted_Hit_F_D4_RR1.opus
</region>

<region>
hivel=25
key=D#8
lovel=0
offset=4304
sample=Tenors_Solo_Drum_5_PuffyMallets_Rim_Hit_P_D4_RR1.opus
</region>

<region>
hivel=25
key=D#0
lovel=0
offset=4415
sample=Tenors_Solo_Drum_5_PuffyMallets_Skank_P_D4_RR1.opus
</region>

<region>
hivel=25
key=D#7
lovel=0
offset=4445
sample=Tenors_Solo_Drum_5_PuffyMallets_Rim_Shot_P_D4_RR1.opus
</region>

<region>
hivel=25
key=D#6
lovel=0
offset=6214
sample=Tenors_Solo_Drum_5_PuffyMallets_Dry_Buzz_Stroke_P_D4_RR1.opus
</region>

<region>
hivel=25
key=D#5
lovel=0
offset=3193
sample=Tenors_Solo_Drum_5_PuffyMallets_Buzz_Stroke_P_D4_RR1.opus
</region>

<region>
hivel=25
key=D#4
lovel=0
offset=4145
sample=Tenors_Solo_Drum_5_PuffyMallets_Muted_Hit_P_D4_RR1.opus
</region>

<region>
hivel=51
key=D#8
lovel=26
offset=6190
sample=Tenors_Solo_Drum_5_PuffyMallets_Rim_Hit_MP_D4_RR1.opus
</region>

<region>
hivel=51
key=D#0
lovel=26
offset=861
sample=Tenors_Solo_Drum_5_PuffyMallets_Skank_MP_D4_RR1.opus
</region>

<region>
hivel=51
key=D#7
lovel=26
offset=5299
sample=Tenors_Solo_Drum_5_PuffyMallets_Rim_Shot_MP_D4_RR1.opus
</region>

<region>
hivel=51
key=D#6
lovel=26
offset=6110
sample=Tenors_Solo_Drum_5_PuffyMallets_Dry_Buzz_Stroke_MP_D4_RR1.opus
</region>

<region>
hivel=51
key=D#5
lovel=26
offset=5248
sample=Tenors_Solo_Drum_5_PuffyMallets_Buzz_Stroke_MP_D4_RR1.opus
</region>

<region>
hivel=51
key=D#4
lovel=26
offset=7929
sample=Tenors_Solo_Drum_5_PuffyMallets_Muted_Hit_MP_D4_RR1.opus
</region>

<region>
hivel=77
key=D#8
lovel=52
offset=3933
sample=Tenors_Solo_Drum_5_PuffyMallets_Rim_Hit_MF_D4_RR1.opus
</region>

<region>
hivel=77
key=D#0
lovel=52
offset=821
sample=Tenors_Solo_Drum_5_PuffyMallets_Skank_MF_D4_RR1.opus
</region>

<region>
hivel=77
key=D#7
lovel=52
offset=818
sample=Tenors_Solo_Drum_5_PuffyMallets_Rim_Shot_MF_D4_RR1.opus
</region>

<region>
hivel=77
key=D#6
lovel=52
offset=790
sample=Tenors_Solo_Drum_5_PuffyMallets_Dry_Buzz_Stroke_MF_D4_RR1.opus
</region>

<region>
hivel=77
key=D#5
lovel=52
offset=863
sample=Tenors_Solo_Drum_5_PuffyMallets_Buzz_Stroke_MF_D4_RR1.opus
</region>

<region>
hivel=77
key=D#4
lovel=52
offset=858
sample=Tenors_Solo_Drum_5_PuffyMallets_Muted_Hit_MF_D4_RR1.opus
</region>

<region>
hivel=127
key=D#8
lovel=104
offset=6006
sample=Tenors_Solo_Drum_5_PuffyMallets_Rim_Hit_FF_D4_RR1.opus
</region>

<region>
hivel=127
key=D#0
lovel=104
offset=707
sample=Tenors_Solo_Drum_5_PuffyMallets_Skank_FF_D4_RR1.opus
</region>

<region>
hivel=127
key=D#7
lovel=104
offset=602
sample=Tenors_Solo_Drum_5_PuffyMallets_Rim_Shot_FF_D4_RR1.opus
</region>

<region>
hivel=127
key=D#6
lovel=104
offset=831
sample=Tenors_Solo_Drum_5_PuffyMallets_Dry_Buzz_Stroke_FF_D4_RR1.opus
</region>

<region>
hivel=127
key=D#5
lovel=104
offset=767
sample=Tenors_Solo_Drum_5_PuffyMallets_Buzz_Stroke_FF_D4_RR1.opus
</region>

<region>
hivel=127
key=D#4
lovel=104
offset=856
sample=Tenors_Solo_Drum_5_PuffyMallets_Muted_Hit_FF_D4_RR1.opus
</region>

<region>
hivel=103
key=D#8
lovel=78
offset=5833
sample=Tenors_Solo_Drum_5_PuffyMallets_Rim_Hit_F_D4_RR1.opus
</region>

<region>
hivel=103
key=D#0
lovel=78
offset=846
sample=Tenors_Solo_Drum_5_PuffyMallets_Skank_F_D4_RR1.opus
</region>

<region>
hivel=103
key=D#7
lovel=78
offset=857
sample=Tenors_Solo_Drum_5_PuffyMallets_Rim_Shot_F_D4_RR1.opus
</region>

<region>
hivel=103
key=D#6
lovel=78
offset=726
sample=Tenors_Solo_Drum_5_PuffyMallets_Dry_Buzz_Stroke_F_D4_RR1.opus
</region>

<region>
hivel=103
key=D#5
lovel=78
offset=866
sample=Tenors_Solo_Drum_5_PuffyMallets_Buzz_Stroke_F_D4_RR1.opus
</region>

<region>
hivel=103
key=D#4
lovel=78
offset=2377
sample=Tenors_Solo_Drum_5_PuffyMallets_Muted_Hit_F_D4_RR1.opus
</region>

<region>
hivel=25
key=E0
lovel=0
offset=3360
sample=Tenors_Solo_Drum_4_PuffyMallets_Skank_P_D4_RR1.opus
</region>

<region>
hivel=25
key=E7
lovel=0
offset=2331
sample=Tenors_Solo_Drum_4_PuffyMallets_Rim_Shot_P_D4_RR1.opus
</region>

<region>
hivel=25
key=E6
lovel=0
offset=4471
sample=Tenors_Solo_Drum_4_PuffyMallets_Dry_Buzz_Stroke_P_D4_RR1.opus
</region>

<region>
hivel=25
key=E5
lovel=0
offset=3267
sample=Tenors_Solo_Drum_4_PuffyMallets_Buzz_Stroke_P_D4_RR1.opus
</region>

<region>
hivel=25
key=E4
lovel=0
offset=4505
sample=Tenors_Solo_Drum_4_PuffyMallets_Muted_Hit_P_D4_RR1.opus
</region>

<region>
hivel=51
key=E0
lovel=26
offset=838
sample=Tenors_Solo_Drum_4_PuffyMallets_Skank_MP_D4_RR1.opus
</region>

<region>
hivel=51
key=E7
lovel=26
offset=3150
sample=Tenors_Solo_Drum_4_PuffyMallets_Rim_Shot_MP_D4_RR1.opus
</region>

<region>
hivel=51
key=E6
lovel=26
offset=2415
sample=Tenors_Solo_Drum_4_PuffyMallets_Dry_Buzz_Stroke_MP_D4_RR1.opus
</region>

<region>
hivel=51
key=E5
lovel=26
offset=2792
sample=Tenors_Solo_Drum_4_PuffyMallets_Buzz_Stroke_MP_D4_RR1.opus
</region>

<region>
hivel=51
key=E4
lovel=26
offset=2617
sample=Tenors_Solo_Drum_4_PuffyMallets_Muted_Hit_MP_D4_RR1.opus
</region>

<region>
hivel=77
key=E0
lovel=52
offset=832
sample=Tenors_Solo_Drum_4_PuffyMallets_Skank_MF_D4_RR1.opus
</region>

<region>
hivel=77
key=E7
lovel=52
offset=814
sample=Tenors_Solo_Drum_4_PuffyMallets_Rim_Shot_MF_D4_RR1.opus
</region>

<region>
hivel=77
key=E6
lovel=52
offset=4189
sample=Tenors_Solo_Drum_4_PuffyMallets_Dry_Buzz_Stroke_MF_D4_RR1.opus
</region>

<region>
hivel=77
key=E5
lovel=52
offset=831
sample=Tenors_Solo_Drum_4_PuffyMallets_Buzz_Stroke_MF_D4_RR1.opus
</region>

<region>
hivel=77
key=E4
lovel=52
offset=862
sample=Tenors_Solo_Drum_4_PuffyMallets_Muted_Hit_MF_D4_RR1.opus
</region>

<region>
hivel=127
key=E0
lovel=104
offset=833
sample=Tenors_Solo_Drum_4_PuffyMallets_Skank_FF_D4_RR1.opus
</region>

<region>
hivel=127
key=E7
lovel=104
offset=623
sample=Tenors_Solo_Drum_4_PuffyMallets_Rim_Shot_FF_D4_RR1.opus
</region>

<region>
hivel=127
key=E6
lovel=104
offset=839
sample=Tenors_Solo_Drum_4_PuffyMallets_Dry_Buzz_Stroke_FF_D4_RR1.opus
</region>

<region>
hivel=127
key=E5
lovel=104
offset=714
sample=Tenors_Solo_Drum_4_PuffyMallets_Buzz_Stroke_FF_D4_RR1.opus
</region>

<region>
hivel=127
key=E4
lovel=104
offset=602
sample=Tenors_Solo_Drum_4_PuffyMallets_Muted_Hit_FF_D4_RR1.opus
</region>

<region>
hivel=103
key=E0
lovel=78
offset=835
sample=Tenors_Solo_Drum_4_PuffyMallets_Skank_F_D4_RR1.opus
</region>

<region>
hivel=103
key=E7
lovel=78
offset=857
sample=Tenors_Solo_Drum_4_PuffyMallets_Rim_Shot_F_D4_RR1.opus
</region>

<region>
hivel=103
key=E6
lovel=78
offset=861
sample=Tenors_Solo_Drum_4_PuffyMallets_Dry_Buzz_Stroke_F_D4_RR1.opus
</region>

<region>
hivel=103
key=E5
lovel=78
offset=671
sample=Tenors_Solo_Drum_4_PuffyMallets_Buzz_Stroke_F_D4_RR1.opus
</region>

<region>
hivel=103
key=E4
lovel=78
offset=761
sample=Tenors_Solo_Drum_4_PuffyMallets_Muted_Hit_F_D4_RR1.opus
</region>

<region>
hivel=25
key=F0
lovel=0
offset=4154
sample=Tenors_Solo_Drum_3_PuffyMallets_Skank_P_D4_RR1.opus
</region>

<region>
hivel=25
key=F7
lovel=0
offset=3709
sample=Tenors_Solo_Drum_3_PuffyMallets_Rim_Shot_P_D4_RR1.opus
</region>

<region>
hivel=25
key=F6
lovel=0
offset=4990
sample=Tenors_Solo_Drum_3_PuffyMallets_Dry_Buzz_Stroke_P_D4_RR1.opus
</region>

<region>
hivel=25
key=F5
lovel=0
offset=4197
sample=Tenors_Solo_Drum_3_PuffyMallets_Buzz_Stroke_P_D4_RR1.opus
</region>

<region>
hivel=25
key=F4
lovel=0
offset=4483
sample=Tenors_Solo_Drum_3_PuffyMallets_Muted_Hit_P_D4_RR1.opus
</region>

<region>
hivel=51
key=F0
lovel=26
offset=815
sample=Tenors_Solo_Drum_3_PuffyMallets_Skank_MP_D4_RR1.opus
</region>

<region>
hivel=51
key=F7
lovel=26
offset=4460
sample=Tenors_Solo_Drum_3_PuffyMallets_Rim_Shot_MP_D4_RR1.opus
</region>

<region>
hivel=51
key=F6
lovel=26
offset=3800
sample=Tenors_Solo_Drum_3_PuffyMallets_Dry_Buzz_Stroke_MP_D4_RR1.opus
</region>

<region>
hivel=51
key=F5
lovel=26
offset=3784
sample=Tenors_Solo_Drum_3_PuffyMallets_Buzz_Stroke_MP_D4_RR1.opus
</region>

<region>
hivel=51
key=F4
lovel=26
offset=3542
sample=Tenors_Solo_Drum_3_PuffyMallets_Muted_Hit_MP_D4_RR1.opus
</region>

<region>
hivel=77
key=F0
lovel=52
offset=835
sample=Tenors_Solo_Drum_3_PuffyMallets_Skank_MF_D4_RR1.opus
</region>

<region>
hivel=77
key=F7
lovel=52
offset=858
sample=Tenors_Solo_Drum_3_PuffyMallets_Rim_Shot_MF_D4_RR1.opus
</region>

<region>
hivel=77
key=F6
lovel=52
offset=5395
sample=Tenors_Solo_Drum_3_PuffyMallets_Dry_Buzz_Stroke_MF_D4_RR1.opus
</region>

<region>
hivel=77
key=F5
lovel=52
offset=822
sample=Tenors_Solo_Drum_3_PuffyMallets_Buzz_Stroke_MF_D4_RR1.opus
</region>

<region>
hivel=77
key=F4
lovel=52
offset=858
sample=Tenors_Solo_Drum_3_PuffyMallets_Muted_Hit_MF_D4_RR1.opus
</region>

<region>
hivel=127
key=F0
lovel=104
offset=582
sample=Tenors_Solo_Drum_3_PuffyMallets_Skank_FF_D4_RR1.opus
</region>

<region>
hivel=127
key=F7
lovel=104
offset=714
sample=Tenors_Solo_Drum_3_PuffyMallets_Rim_Shot_FF_D4_RR1.opus
</region>

<region>
hivel=127
key=F6
lovel=104
offset=850
sample=Tenors_Solo_Drum_3_PuffyMallets_Dry_Buzz_Stroke_FF_D4_RR1.opus
</region>

<region>
hivel=127
key=F5
lovel=104
offset=725
sample=Tenors_Solo_Drum_3_PuffyMallets_Buzz_Stroke_FF_D4_RR1.opus
</region>

<region>
hivel=127
key=F4
lovel=104
offset=708
sample=Tenors_Solo_Drum_3_PuffyMallets_Muted_Hit_FF_D4_RR1.opus
</region>

<region>
hivel=103
key=F0
lovel=78
offset=823
sample=Tenors_Solo_Drum_3_PuffyMallets_Skank_F_D4_RR1.opus
</region>

<region>
hivel=103
key=F7
lovel=78
offset=858
sample=Tenors_Solo_Drum_3_PuffyMallets_Rim_Shot_F_D4_RR1.opus
</region>

<region>
hivel=103
key=F6
lovel=78
offset=828
sample=Tenors_Solo_Drum_3_PuffyMallets_Dry_Buzz_Stroke_F_D4_RR1.opus
</region>

<region>
hivel=103
key=F5
lovel=78
offset=825
sample=Tenors_Solo_Drum_3_PuffyMallets_Buzz_Stroke_F_D4_RR1.opus
</region>

<region>
hivel=103
key=F4
lovel=78
offset=829
sample=Tenors_Solo_Drum_3_PuffyMallets_Muted_Hit_F_D4_RR1.opus
</region>

<region>
hivel=25
key=F#0
lovel=0
offset=3058
sample=Tenors_Solo_Drum_2_PuffyMallets_Skank_P_D4_RR1.opus
</region>

<region>
hivel=25
key=F#7
lovel=0
offset=4322
sample=Tenors_Solo_Drum_2_PuffyMallets_Rim_Shot_P_D4_RR1.opus
</region>

<region>
hivel=25
key=F#6
lovel=0
offset=2426
sample=Tenors_Solo_Drum_2_PuffyMallets_Dry_Buzz_Stroke_P_D4_RR1.opus
</region>

<region>
hivel=25
key=F#5
lovel=0
offset=3112
sample=Tenors_Solo_Drum_2_PuffyMallets_Buzz_Stroke_P_D4_RR1.opus
</region>

<region>
hivel=25
key=F#4
lovel=0
offset=5886
sample=Tenors_Solo_Drum_2_PuffyMallets_Muted_Hit_P_D4_RR1.opus
</region>

<region>
hivel=51
key=F#0
lovel=26
offset=3607
sample=Tenors_Solo_Drum_2_PuffyMallets_Skank_MP_D4_RR1.opus
</region>

<region>
hivel=51
key=F#7
lovel=26
offset=2906
sample=Tenors_Solo_Drum_2_PuffyMallets_Rim_Shot_MP_D4_RR1.opus
</region>

<region>
hivel=51
key=F#6
lovel=26
offset=3542
sample=Tenors_Solo_Drum_2_PuffyMallets_Dry_Buzz_Stroke_MP_D4_RR1.opus
</region>

<region>
hivel=51
key=F#5
lovel=26
offset=2544
sample=Tenors_Solo_Drum_2_PuffyMallets_Buzz_Stroke_MP_D4_RR1.opus
</region>

<region>
hivel=51
key=F#4
lovel=26
offset=4355
sample=Tenors_Solo_Drum_2_PuffyMallets_Muted_Hit_MP_D4_RR1.opus
</region>

<region>
hivel=77
key=F#0
lovel=52
offset=831
sample=Tenors_Solo_Drum_2_PuffyMallets_Skank_MF_D4_RR1.opus
</region>

<region>
hivel=77
key=F#7
lovel=52
offset=3484
sample=Tenors_Solo_Drum_2_PuffyMallets_Rim_Shot_MF_D4_RR1.opus
</region>

<region>
hivel=77
key=F#6
lovel=52
offset=2715
sample=Tenors_Solo_Drum_2_PuffyMallets_Dry_Buzz_Stroke_MF_D4_RR1.opus
</region>

<region>
hivel=77
key=F#5
lovel=52
offset=1588
sample=Tenors_Solo_Drum_2_PuffyMallets_Buzz_Stroke_MF_D4_RR1.opus
</region>

<region>
hivel=77
key=F#4
lovel=52
offset=3019
sample=Tenors_Solo_Drum_2_PuffyMallets_Muted_Hit_MF_D4_RR1.opus
</region>

<region>
hivel=127
key=F#0
lovel=104
offset=840
sample=Tenors_Solo_Drum_2_PuffyMallets_Skank_FF_D4_RR1.opus
</region>

<region>
hivel=127
key=F#7
lovel=104
offset=755
sample=Tenors_Solo_Drum_2_PuffyMallets_Rim_Shot_FF_D4_RR1.opus
</region>

<region>
hivel=127
key=F#6
lovel=104
offset=859
sample=Tenors_Solo_Drum_2_PuffyMallets_Dry_Buzz_Stroke_FF_D4_RR1.opus
</region>

<region>
hivel=127
key=F#5
lovel=104
offset=726
sample=Tenors_Solo_Drum_2_PuffyMallets_Buzz_Stroke_FF_D4_RR1.opus
</region>

<region>
hivel=127
key=F#4
lovel=104
offset=635
sample=Tenors_Solo_Drum_2_PuffyMallets_Muted_Hit_FF_D4_RR1.opus
</region>

<region>
hivel=103
key=F#0
lovel=78
offset=787
sample=Tenors_Solo_Drum_2_PuffyMallets_Skank_F_D4_RR1.opus
</region>

<region>
hivel=103
key=F#7
lovel=78
offset=831
sample=Tenors_Solo_Drum_2_PuffyMallets_Rim_Shot_F_D4_RR1.opus
</region>

<region>
hivel=103
key=F#6
lovel=78
offset=764
sample=Tenors_Solo_Drum_2_PuffyMallets_Dry_Buzz_Stroke_F_D4_RR1.opus
</region>

<region>
hivel=103
key=F#5
lovel=78
offset=743
sample=Tenors_Solo_Drum_2_PuffyMallets_Buzz_Stroke_F_D4_RR1.opus
</region>

<region>
hivel=103
key=F#4
lovel=78
offset=711
sample=Tenors_Solo_Drum_2_PuffyMallets_Muted_Hit_F_D4_RR1.opus
</region>

<region>
hivel=25
key=G0
lovel=0
offset=3178
sample=Tenors_Solo_Drum_1_PuffyMallets_Skank_P_D4_RR1.opus
</region>

<region>
hivel=25
key=G7
lovel=0
offset=4240
sample=Tenors_Solo_Drum_1_PuffyMallets_Rim_Shot_P_D4_RR1.opus
</region>

<region>
hivel=25
key=G6
lovel=0
offset=4758
sample=Tenors_Solo_Drum_1_PuffyMallets_Dry_Buzz_Stroke_P_D4_RR1.opus
</region>

<region>
hivel=25
key=G5
lovel=0
offset=3078
sample=Tenors_Solo_Drum_1_PuffyMallets_Buzz_Stroke_P_D4_RR1.opus
</region>

<region>
hivel=25
key=G4
lovel=0
offset=4785
sample=Tenors_Solo_Drum_1_PuffyMallets_Muted_Hit_P_D4_RR1.opus
</region>

<region>
hivel=51
key=G0
lovel=26
offset=3710
sample=Tenors_Solo_Drum_1_PuffyMallets_Skank_MP_D4_RR1.opus
</region>

<region>
hivel=51
key=G7
lovel=26
offset=5109
sample=Tenors_Solo_Drum_1_PuffyMallets_Rim_Shot_MP_D4_RR1.opus
</region>

<region>
hivel=51
key=G6
lovel=26
offset=3530
sample=Tenors_Solo_Drum_1_PuffyMallets_Dry_Buzz_Stroke_MP_D4_RR1.opus
</region>

<region>
hivel=51
key=G5
lovel=26
offset=5166
sample=Tenors_Solo_Drum_1_PuffyMallets_Buzz_Stroke_MP_D4_RR1.opus
</region>

<region>
hivel=51
key=G4
lovel=26
offset=4968
sample=Tenors_Solo_Drum_1_PuffyMallets_Muted_Hit_MP_D4_RR1.opus
</region>

<region>
hivel=77
key=G0
lovel=52
offset=3956
sample=Tenors_Solo_Drum_1_PuffyMallets_Skank_MF_D4_RR1.opus
</region>

<region>
hivel=77
key=G7
lovel=52
offset=3861
sample=Tenors_Solo_Drum_1_PuffyMallets_Rim_Shot_MF_D4_RR1.opus
</region>

<region>
hivel=77
key=G6
lovel=52
offset=4227
sample=Tenors_Solo_Drum_1_PuffyMallets_Dry_Buzz_Stroke_MF_D4_RR1.opus
</region>

<region>
hivel=77
key=G5
lovel=52
offset=4140
sample=Tenors_Solo_Drum_1_PuffyMallets_Buzz_Stroke_MF_D4_RR1.opus
</region>

<region>
hivel=77
key=G4
lovel=52
offset=3979
sample=Tenors_Solo_Drum_1_PuffyMallets_Muted_Hit_MF_D4_RR1.opus
</region>

<region>
hivel=127
key=G0
lovel=104
offset=705
sample=Tenors_Solo_Drum_1_PuffyMallets_Skank_FF_D4_RR1.opus
</region>

<region>
hivel=127
key=G7
lovel=104
offset=709
sample=Tenors_Solo_Drum_1_PuffyMallets_Rim_Shot_FF_D4_RR1.opus
</region>

<region>
hivel=127
key=G6
lovel=104
offset=3473
sample=Tenors_Solo_Drum_1_PuffyMallets_Dry_Buzz_Stroke_FF_D4_RR1.opus
</region>

<region>
hivel=127
key=G5
lovel=104
offset=789
sample=Tenors_Solo_Drum_1_PuffyMallets_Buzz_Stroke_FF_D4_RR1.opus
</region>

<region>
hivel=127
key=G4
lovel=104
offset=2609
sample=Tenors_Solo_Drum_1_PuffyMallets_Muted_Hit_FF_D4_RR1.opus
</region>

<region>
hivel=103
key=G0
lovel=78
offset=832
sample=Tenors_Solo_Drum_1_PuffyMallets_Skank_F_D4_RR1.opus
</region>

<region>
hivel=103
key=G7
lovel=78
offset=2872
sample=Tenors_Solo_Drum_1_PuffyMallets_Rim_Shot_F_D4_RR1.opus
</region>

<region>
hivel=103
key=G6
lovel=78
offset=5392
sample=Tenors_Solo_Drum_1_PuffyMallets_Dry_Buzz_Stroke_F_D4_RR1.opus
</region>

<region>
hivel=103
key=G5
lovel=78
offset=3245
sample=Tenors_Solo_Drum_1_PuffyMallets_Buzz_Stroke_F_D4_RR1.opus
</region>

<region>
hivel=103
key=G4
lovel=78
offset=2153
sample=Tenors_Solo_Drum_1_PuffyMallets_Muted_Hit_F_D4_RR1.opus
</region>
</group>

<group>
color=green
group_label=Alt_Hit_RR3
seq_length=2
seq_position=2

<region>
hivel=25
key=D8
lovel=0
offset=3944
sample=Tenors_Solo_Drum_6_PuffyMallets_Rim_Hit_P_D4_RR3.opus
</region>

<region>
hivel=25
key=D0
lovel=0
offset=3454
sample=Tenors_Solo_Drum_6_PuffyMallets_Skank_P_D4_RR3.opus
</region>

<region>
hivel=25
key=D7
lovel=0
offset=2784
sample=Tenors_Solo_Drum_6_PuffyMallets_Rim_Shot_P_D4_RR3.opus
</region>

<region>
hivel=25
key=D6
lovel=0
offset=3212
sample=Tenors_Solo_Drum_6_PuffyMallets_Dry_Buzz_Stroke_P_D4_RR3.opus
</region>

<region>
hivel=25
key=D4
lovel=0
offset=4905
sample=Tenors_Solo_Drum_6_PuffyMallets_Muted_Hit_P_D4_RR3.opus
</region>

<region>
hivel=51
key=D8
lovel=26
offset=2649
sample=Tenors_Solo_Drum_6_PuffyMallets_Rim_Hit_MP_D4_RR3.opus
</region>

<region>
hivel=51
key=D0
lovel=26
offset=4422
sample=Tenors_Solo_Drum_6_PuffyMallets_Skank_MP_D4_RR3.opus
</region>

<region>
hivel=51
key=D7
lovel=26
offset=2521
sample=Tenors_Solo_Drum_6_PuffyMallets_Rim_Shot_MP_D4_RR3.opus
</region>

<region>
hivel=51
key=D6
lovel=26
offset=3138
sample=Tenors_Solo_Drum_6_PuffyMallets_Dry_Buzz_Stroke_MP_D4_RR3.opus
</region>

<region>
hivel=51
key=D4
lovel=26
offset=3208
sample=Tenors_Solo_Drum_6_PuffyMallets_Muted_Hit_MP_D4_RR3.opus
</region>

<region>
hivel=77
key=D8
lovel=52
offset=3835
sample=Tenors_Solo_Drum_6_PuffyMallets_Rim_Hit_MF_D4_RR3.opus
</region>

<region>
hivel=77
key=D0
lovel=52
offset=862
sample=Tenors_Solo_Drum_6_PuffyMallets_Skank_MF_D4_RR3.opus
</region>

<region>
hivel=77
key=D7
lovel=52
offset=850
sample=Tenors_Solo_Drum_6_PuffyMallets_Rim_Shot_MF_D4_RR3.opus
</region>

<region>
hivel=77
key=D6
lovel=52
offset=752
sample=Tenors_Solo_Drum_6_PuffyMallets_Dry_Buzz_Stroke_MF_D4_RR3.opus
</region>

<region>
hivel=77
key=D4
lovel=52
offset=859
sample=Tenors_Solo_Drum_6_PuffyMallets_Muted_Hit_MF_D4_RR3.opus
</region>

<region>
hivel=127
key=D8
lovel=104
offset=5005
sample=Tenors_Solo_Drum_6_PuffyMallets_Rim_Hit_FF_D4_RR3.opus
</region>

<region>
hivel=127
key=D0
lovel=104
offset=737
sample=Tenors_Solo_Drum_6_PuffyMallets_Skank_FF_D4_RR3.opus
</region>

<region>
hivel=127
key=D7
lovel=104
offset=825
sample=Tenors_Solo_Drum_6_PuffyMallets_Rim_Shot_FF_D4_RR3.opus
</region>

<region>
hivel=127
key=D6
lovel=104
offset=722
sample=Tenors_Solo_Drum_6_PuffyMallets_Dry_Buzz_Stroke_FF_D4_RR3.opus
</region>

<region>
hivel=127
key=D4
lovel=104
offset=696
sample=Tenors_Solo_Drum_6_PuffyMallets_Muted_Hit_FF_D4_RR3.opus
</region>

<region>
hivel=103
key=D8
lovel=78
offset=4260
sample=Tenors_Solo_Drum_6_PuffyMallets_Rim_Hit_F_D4_RR3.opus
</region>

<region>
hivel=103
key=D0
lovel=78
offset=828
sample=Tenors_Solo_Drum_6_PuffyMallets_Skank_F_D4_RR3.opus
</region>

<region>
hivel=103
key=D7
lovel=78
offset=858
sample=Tenors_Solo_Drum_6_PuffyMallets_Rim_Shot_F_D4_RR3.opus
</region>

<region>
hivel=103
key=D6
lovel=78
offset=746
sample=Tenors_Solo_Drum_6_PuffyMallets_Dry_Buzz_Stroke_F_D4_RR3.opus
</region>

<region>
hivel=103
key=D4
lovel=78
offset=708
sample=Tenors_Solo_Drum_6_PuffyMallets_Muted_Hit_F_D4_RR3.opus
</region>

<region>
hivel=25
key=D#8
lovel=0
offset=3764
sample=Tenors_Solo_Drum_5_PuffyMallets_Rim_Hit_P_D4_RR3.opus
</region>

<region>
hivel=25
key=D#0
lovel=0
offset=4667
sample=Tenors_Solo_Drum_5_PuffyMallets_Skank_P_D4_RR3.opus
</region>

<region>
hivel=25
key=D#7
lovel=0
offset=3775
sample=Tenors_Solo_Drum_5_PuffyMallets_Rim_Shot_P_D4_RR3.opus
</region>

<region>
hivel=25
key=D#6
lovel=0
offset=4207
sample=Tenors_Solo_Drum_5_PuffyMallets_Dry_Buzz_Stroke_P_D4_RR3.opus
</region>

<region>
hivel=25
key=D#4
lovel=0
offset=4947
sample=Tenors_Solo_Drum_5_PuffyMallets_Muted_Hit_P_D4_RR3.opus
</region>

<region>
hivel=51
key=D#8
lovel=26
offset=5705
sample=Tenors_Solo_Drum_5_PuffyMallets_Rim_Hit_MP_D4_RR3.opus
</region>

<region>
hivel=51
key=D#0
lovel=26
offset=2779
sample=Tenors_Solo_Drum_5_PuffyMallets_Skank_MP_D4_RR3.opus
</region>

<region>
hivel=51
key=D#7
lovel=26
offset=862
sample=Tenors_Solo_Drum_5_PuffyMallets_Rim_Shot_MP_D4_RR3.opus
</region>

<region>
hivel=51
key=D#6
lovel=26
offset=5289
sample=Tenors_Solo_Drum_5_PuffyMallets_Dry_Buzz_Stroke_MP_D4_RR3.opus
</region>

<region>
hivel=51
key=D#4
lovel=26
offset=6278
sample=Tenors_Solo_Drum_5_PuffyMallets_Muted_Hit_MP_D4_RR3.opus
</region>

<region>
hivel=77
key=D#8
lovel=52
offset=4900
sample=Tenors_Solo_Drum_5_PuffyMallets_Rim_Hit_MF_D4_RR3.opus
</region>

<region>
hivel=77
key=D#0
lovel=52
offset=837
sample=Tenors_Solo_Drum_5_PuffyMallets_Skank_MF_D4_RR3.opus
</region>

<region>
hivel=77
key=D#7
lovel=52
offset=821
sample=Tenors_Solo_Drum_5_PuffyMallets_Rim_Shot_MF_D4_RR3.opus
</region>

<region>
hivel=77
key=D#6
lovel=52
offset=754
sample=Tenors_Solo_Drum_5_PuffyMallets_Dry_Buzz_Stroke_MF_D4_RR3.opus
</region>

<region>
hivel=77
key=D#4
lovel=52
offset=1940
sample=Tenors_Solo_Drum_5_PuffyMallets_Muted_Hit_MF_D4_RR3.opus
</region>

<region>
hivel=127
key=D#8
lovel=104
offset=3630
sample=Tenors_Solo_Drum_5_PuffyMallets_Rim_Hit_FF_D4_RR3.opus
</region>

<region>
hivel=127
key=D#0
lovel=104
offset=723
sample=Tenors_Solo_Drum_5_PuffyMallets_Skank_FF_D4_RR3.opus
</region>

<region>
hivel=127
key=D#7
lovel=104
offset=856
sample=Tenors_Solo_Drum_5_PuffyMallets_Rim_Shot_FF_D4_RR3.opus
</region>

<region>
hivel=127
key=D#6
lovel=104
offset=868
sample=Tenors_Solo_Drum_5_PuffyMallets_Dry_Buzz_Stroke_FF_D4_RR3.opus
</region>

<region>
hivel=127
key=D#4
lovel=104
offset=603
sample=Tenors_Solo_Drum_5_PuffyMallets_Muted_Hit_FF_D4_RR3.opus
</region>

<region>
hivel=103
key=D#8
lovel=78
offset=4888
sample=Tenors_Solo_Drum_5_PuffyMallets_Rim_Hit_F_D4_RR3.opus
</region>

<region>
hivel=103
key=D#0
lovel=78
offset=721
sample=Tenors_Solo_Drum_5_PuffyMallets_Skank_F_D4_RR3.opus
</region>

<region>
hivel=103
key=D#7
lovel=78
offset=828
sample=Tenors_Solo_Drum_5_PuffyMallets_Rim_Shot_F_D4_RR3.opus
</region>

<region>
hivel=103
key=D#6
lovel=78
offset=752
sample=Tenors_Solo_Drum_5_PuffyMallets_Dry_Buzz_Stroke_F_D4_RR3.opus
</region>

<region>
hivel=103
key=D#4
lovel=78
offset=835
sample=Tenors_Solo_Drum_5_PuffyMallets_Muted_Hit_F_D4_RR3.opus
</region>

<region>
hivel=25
key=E0
lovel=0
offset=4114
sample=Tenors_Solo_Drum_4_PuffyMallets_Skank_P_D4_RR3.opus
</region>

<region>
hivel=25
key=E7
lovel=0
offset=2635
sample=Tenors_Solo_Drum_4_PuffyMallets_Rim_Shot_P_D4_RR3.opus
</region>

<region>
hivel=25
key=E6
lovel=0
offset=3632
sample=Tenors_Solo_Drum_4_PuffyMallets_Dry_Buzz_Stroke_P_D4_RR3.opus
</region>

<region>
hivel=25
key=E4
lovel=0
offset=4210
sample=Tenors_Solo_Drum_4_PuffyMallets_Muted_Hit_P_D4_RR3.opus
</region>

<region>
hivel=51
key=E0
lovel=26
offset=2067
sample=Tenors_Solo_Drum_4_PuffyMallets_Skank_MP_D4_RR3.opus
</region>

<region>
hivel=51
key=E7
lovel=26
offset=3050
sample=Tenors_Solo_Drum_4_PuffyMallets_Rim_Shot_MP_D4_RR3.opus
</region>

<region>
hivel=51
key=E6
lovel=26
offset=2562
sample=Tenors_Solo_Drum_4_PuffyMallets_Dry_Buzz_Stroke_MP_D4_RR3.opus
</region>

<region>
hivel=51
key=E4
lovel=26
offset=3533
sample=Tenors_Solo_Drum_4_PuffyMallets_Muted_Hit_MP_D4_RR3.opus
</region>

<region>
hivel=77
key=E0
lovel=52
offset=815
sample=Tenors_Solo_Drum_4_PuffyMallets_Skank_MF_D4_RR3.opus
</region>

<region>
hivel=77
key=E7
lovel=52
offset=855
sample=Tenors_Solo_Drum_4_PuffyMallets_Rim_Shot_MF_D4_RR3.opus
</region>

<region>
hivel=77
key=E6
lovel=52
offset=858
sample=Tenors_Solo_Drum_4_PuffyMallets_Dry_Buzz_Stroke_MF_D4_RR3.opus
</region>

<region>
hivel=77
key=E4
lovel=52
offset=859
sample=Tenors_Solo_Drum_4_PuffyMallets_Muted_Hit_MF_D4_RR3.opus
</region>

<region>
hivel=127
key=E0
lovel=104
offset=589
sample=Tenors_Solo_Drum_4_PuffyMallets_Skank_FF_D4_RR3.opus
</region>

<region>
hivel=127
key=E7
lovel=104
offset=828
sample=Tenors_Solo_Drum_4_PuffyMallets_Rim_Shot_FF_D4_RR3.opus
</region>

<region>
hivel=127
key=E6
lovel=104
offset=772
sample=Tenors_Solo_Drum_4_PuffyMallets_Dry_Buzz_Stroke_FF_D4_RR3.opus
</region>

<region>
hivel=127
key=E4
lovel=104
offset=773
sample=Tenors_Solo_Drum_4_PuffyMallets_Muted_Hit_FF_D4_RR3.opus
</region>

<region>
hivel=103
key=E0
lovel=78
offset=857
sample=Tenors_Solo_Drum_4_PuffyMallets_Skank_F_D4_RR3.opus
</region>

<region>
hivel=103
key=E7
lovel=78
offset=834
sample=Tenors_Solo_Drum_4_PuffyMallets_Rim_Shot_F_D4_RR3.opus
</region>

<region>
hivel=103
key=E6
lovel=78
offset=830
sample=Tenors_Solo_Drum_4_PuffyMallets_Dry_Buzz_Stroke_F_D4_RR3.opus
</region>

<region>
hivel=103
key=E4
lovel=78
offset=785
sample=Tenors_Solo_Drum_4_PuffyMallets_Muted_Hit_F_D4_RR3.opus
</region>

<region>
hivel=25
key=F0
lovel=0
offset=5115
sample=Tenors_Solo_Drum_3_PuffyMallets_Skank_P_D4_RR3.opus
</region>

<region>
hivel=25
key=F7
lovel=0
offset=3114
sample=Tenors_Solo_Drum_3_PuffyMallets_Rim_Shot_P_D4_RR3.opus
</region>

<region>
hivel=25
key=F6
lovel=0
offset=4566
sample=Tenors_Solo_Drum_3_PuffyMallets_Dry_Buzz_Stroke_P_D4_RR3.opus
</region>

<region>
hivel=25
key=F4
lovel=0
offset=5431
sample=Tenors_Solo_Drum_3_PuffyMallets_Muted_Hit_P_D4_RR3.opus
</region>

<region>
hivel=51
key=F0
lovel=26
offset=3954
sample=Tenors_Solo_Drum_3_PuffyMallets_Skank_MP_D4_RR3.opus
</region>

<region>
hivel=51
key=F7
lovel=26
offset=871
sample=Tenors_Solo_Drum_3_PuffyMallets_Rim_Shot_MP_D4_RR3.opus
</region>

<region>
hivel=51
key=F6
lovel=26
offset=4486
sample=Tenors_Solo_Drum_3_PuffyMallets_Dry_Buzz_Stroke_MP_D4_RR3.opus
</region>

<region>
hivel=51
key=F4
lovel=26
offset=4320
sample=Tenors_Solo_Drum_3_PuffyMallets_Muted_Hit_MP_D4_RR3.opus
</region>

<region>
hivel=77
key=F0
lovel=52
offset=860
sample=Tenors_Solo_Drum_3_PuffyMallets_Skank_MF_D4_RR3.opus
</region>

<region>
hivel=77
key=F7
lovel=52
offset=835
sample=Tenors_Solo_Drum_3_PuffyMallets_Rim_Shot_MF_D4_RR3.opus
</region>

<region>
hivel=77
key=F6
lovel=52
offset=861
sample=Tenors_Solo_Drum_3_PuffyMallets_Dry_Buzz_Stroke_MF_D4_RR3.opus
</region>

<region>
hivel=77
key=F4
lovel=52
offset=864
sample=Tenors_Solo_Drum_3_PuffyMallets_Muted_Hit_MF_D4_RR3.opus
</region>

<region>
hivel=127
key=F0
lovel=104
offset=624
sample=Tenors_Solo_Drum_3_PuffyMallets_Skank_FF_D4_RR3.opus
</region>

<region>
hivel=127
key=F7
lovel=104
offset=824
sample=Tenors_Solo_Drum_3_PuffyMallets_Rim_Shot_FF_D4_RR3.opus
</region>

<region>
hivel=127
key=F6
lovel=104
offset=713
sample=Tenors_Solo_Drum_3_PuffyMallets_Dry_Buzz_Stroke_FF_D4_RR3.opus
</region>

<region>
hivel=127
key=F4
lovel=104
offset=586
sample=Tenors_Solo_Drum_3_PuffyMallets_Muted_Hit_FF_D4_RR3.opus
</region>

<region>
hivel=103
key=F0
lovel=78
offset=831
sample=Tenors_Solo_Drum_3_PuffyMallets_Skank_F_D4_RR3.opus
</region>

<region>
hivel=103
key=F7
lovel=78
offset=831
sample=Tenors_Solo_Drum_3_PuffyMallets_Rim_Shot_F_D4_RR3.opus
</region>

<region>
hivel=103
key=F6
lovel=78
offset=742
sample=Tenors_Solo_Drum_3_PuffyMallets_Dry_Buzz_Stroke_F_D4_RR3.opus
</region>

<region>
hivel=103
key=F4
lovel=78
offset=817
sample=Tenors_Solo_Drum_3_PuffyMallets_Muted_Hit_F_D4_RR3.opus
</region>

<region>
hivel=25
key=F#0
lovel=0
offset=1792
sample=Tenors_Solo_Drum_2_PuffyMallets_Skank_P_D4_RR3.opus
</region>

<region>
hivel=25
key=F#7
lovel=0
offset=1880
sample=Tenors_Solo_Drum_2_PuffyMallets_Rim_Shot_P_D4_RR3.opus
</region>

<region>
hivel=25
key=F#6
lovel=0
offset=2729
sample=Tenors_Solo_Drum_2_PuffyMallets_Dry_Buzz_Stroke_P_D4_RR3.opus
</region>

<region>
hivel=25
key=F#4
lovel=0
offset=2576
sample=Tenors_Solo_Drum_2_PuffyMallets_Muted_Hit_P_D4_RR3.opus
</region>

<region>
hivel=51
key=F#0
lovel=26
offset=3426
sample=Tenors_Solo_Drum_2_PuffyMallets_Skank_MP_D4_RR3.opus
</region>

<region>
hivel=51
key=F#7
lovel=26
offset=2469
sample=Tenors_Solo_Drum_2_PuffyMallets_Rim_Shot_MP_D4_RR3.opus
</region>

<region>
hivel=51
key=F#6
lovel=26
offset=4168
sample=Tenors_Solo_Drum_2_PuffyMallets_Dry_Buzz_Stroke_MP_D4_RR3.opus
</region>

<region>
hivel=51
key=F#4
lovel=26
offset=3909
sample=Tenors_Solo_Drum_2_PuffyMallets_Muted_Hit_MP_D4_RR3.opus
</region>

<region>
hivel=77
key=F#0
lovel=52
offset=3624
sample=Tenors_Solo_Drum_2_PuffyMallets_Skank_MF_D4_RR3.opus
</region>

<region>
hivel=77
key=F#7
lovel=52
offset=2462
sample=Tenors_Solo_Drum_2_PuffyMallets_Rim_Shot_MF_D4_RR3.opus
</region>

<region>
hivel=77
key=F#6
lovel=52
offset=2640
sample=Tenors_Solo_Drum_2_PuffyMallets_Dry_Buzz_Stroke_MF_D4_RR3.opus
</region>

<region>
hivel=77
key=F#4
lovel=52
offset=860
sample=Tenors_Solo_Drum_2_PuffyMallets_Muted_Hit_MF_D4_RR3.opus
</region>

<region>
hivel=127
key=F#0
lovel=104
offset=776
sample=Tenors_Solo_Drum_2_PuffyMallets_Skank_FF_D4_RR3.opus
</region>

<region>
hivel=127
key=F#7
lovel=104
offset=832
sample=Tenors_Solo_Drum_2_PuffyMallets_Rim_Shot_FF_D4_RR3.opus
</region>

<region>
hivel=127
key=F#6
lovel=104
offset=819
sample=Tenors_Solo_Drum_2_PuffyMallets_Dry_Buzz_Stroke_FF_D4_RR3.opus
</region>

<region>
hivel=127
key=F#4
lovel=104
offset=712
sample=Tenors_Solo_Drum_2_PuffyMallets_Muted_Hit_FF_D4_RR3.opus
</region>

<region>
hivel=103
key=F#0
lovel=78
offset=803
sample=Tenors_Solo_Drum_2_PuffyMallets_Skank_F_D4_RR3.opus
</region>

<region>
hivel=103
key=F#7
lovel=78
offset=751
sample=Tenors_Solo_Drum_2_PuffyMallets_Rim_Shot_F_D4_RR3.opus
</region>

<region>
hivel=103
key=F#6
lovel=78
offset=755
sample=Tenors_Solo_Drum_2_PuffyMallets_Dry_Buzz_Stroke_F_D4_RR3.opus
</region>

<region>
hivel=103
key=F#4
lovel=78
offset=753
sample=Tenors_Solo_Drum_2_PuffyMallets_Muted_Hit_F_D4_RR3.opus
</region>

<region>
hivel=25
key=G0
lovel=0
offset=2371
sample=Tenors_Solo_Drum_1_PuffyMallets_Skank_P_D4_RR3.opus
</region>

<region>
hivel=25
key=G7
lovel=0
offset=3128
sample=Tenors_Solo_Drum_1_PuffyMallets_Rim_Shot_P_D4_RR3.opus
</region>

<region>
hivel=25
key=G6
lovel=0
offset=4470
sample=Tenors_Solo_Drum_1_PuffyMallets_Dry_Buzz_Stroke_P_D4_RR3.opus
</region>

<region>
hivel=25
key=G4
lovel=0
offset=4835
sample=Tenors_Solo_Drum_1_PuffyMallets_Muted_Hit_P_D4_RR3.opus
</region>

<region>
hivel=51
key=G0
lovel=26
offset=4488
sample=Tenors_Solo_Drum_1_PuffyMallets_Skank_MP_D4_RR3.opus
</region>

<region>
hivel=51
key=G7
lovel=26
offset=3452
sample=Tenors_Solo_Drum_1_PuffyMallets_Rim_Shot_MP_D4_RR3.opus
</region>

<region>
hivel=51
key=G6
lovel=26
offset=3523
sample=Tenors_Solo_Drum_1_PuffyMallets_Dry_Buzz_Stroke_MP_D4_RR3.opus
</region>

<region>
hivel=51
key=G4
lovel=26
offset=4513
sample=Tenors_Solo_Drum_1_PuffyMallets_Muted_Hit_MP_D4_RR3.opus
</region>

<region>
hivel=77
key=G0
lovel=52
offset=3856
sample=Tenors_Solo_Drum_1_PuffyMallets_Skank_MF_D4_RR3.opus
</region>

<region>
hivel=77
key=G7
lovel=52
offset=3480
sample=Tenors_Solo_Drum_1_PuffyMallets_Rim_Shot_MF_D4_RR3.opus
</region>

<region>
hivel=77
key=G6
lovel=52
offset=5169
sample=Tenors_Solo_Drum_1_PuffyMallets_Dry_Buzz_Stroke_MF_D4_RR3.opus
</region>

<region>
hivel=77
key=G4
lovel=52
offset=4682
sample=Tenors_Solo_Drum_1_PuffyMallets_Muted_Hit_MF_D4_RR3.opus
</region>

<region>
hivel=127
key=G0
lovel=104
offset=4553
sample=Tenors_Solo_Drum_1_PuffyMallets_Skank_FF_D4_RR3.opus
</region>

<region>
hivel=127
key=G7
lovel=104
offset=629
sample=Tenors_Solo_Drum_1_PuffyMallets_Rim_Shot_FF_D4_RR3.opus
</region>

<region>
hivel=127
key=G6
lovel=104
offset=4735
sample=Tenors_Solo_Drum_1_PuffyMallets_Dry_Buzz_Stroke_FF_D4_RR3.opus
</region>

<region>
hivel=127
key=G4
lovel=104
offset=3345
sample=Tenors_Solo_Drum_1_PuffyMallets_Muted_Hit_FF_D4_RR3.opus
</region>

<region>
hivel=103
key=G0
lovel=78
offset=3240
sample=Tenors_Solo_Drum_1_PuffyMallets_Skank_F_D4_RR3.opus
</region>

<region>
hivel=103
key=G7
lovel=78
offset=837
sample=Tenors_Solo_Drum_1_PuffyMallets_Rim_Shot_F_D4_RR3.opus
</region>

<region>
hivel=103
key=G6
lovel=78
offset=4183
sample=Tenors_Solo_Drum_1_PuffyMallets_Dry_Buzz_Stroke_F_D4_RR3.opus
</region>

<region>
hivel=103
key=G4
lovel=78
offset=4027
sample=Tenors_Solo_Drum_1_PuffyMallets_Muted_Hit_F_D4_RR3.opus
</region>

<region>
hivel=25
key=D5
lovel=0
offset=1545
sample=Tenors_Solo_Drum_6_PuffyMallets_Buzz_Stroke_P_D4_RR3.opus
</region>

<region>
hivel=51
key=D5
lovel=26
offset=627
sample=Tenors_Solo_Drum_6_PuffyMallets_Buzz_Stroke_MP_D4_RR3.opus
</region>

<region>
hivel=77
key=D5
lovel=52
offset=829
sample=Tenors_Solo_Drum_6_PuffyMallets_Buzz_Stroke_MF_D4_RR3.opus
</region>

<region>
hivel=127
key=D5
lovel=104
offset=702
sample=Tenors_Solo_Drum_6_PuffyMallets_Buzz_Stroke_FF_D4_RR3.opus
</region>

<region>
hivel=103
key=D5
lovel=78
offset=708
sample=Tenors_Solo_Drum_6_PuffyMallets_Buzz_Stroke_F_D4_RR3.opus
</region>

<region>
hivel=25
key=D#5
lovel=0
offset=4104
sample=Tenors_Solo_Drum_5_PuffyMallets_Buzz_Stroke_P_D4_RR3.opus
</region>

<region>
hivel=51
key=D#5
lovel=26
offset=3622
sample=Tenors_Solo_Drum_5_PuffyMallets_Buzz_Stroke_MP_D4_RR3.opus
</region>

<region>
hivel=77
key=D#5
lovel=52
offset=838
sample=Tenors_Solo_Drum_5_PuffyMallets_Buzz_Stroke_MF_D4_RR3.opus
</region>

<region>
hivel=127
key=D#5
lovel=104
offset=617
sample=Tenors_Solo_Drum_5_PuffyMallets_Buzz_Stroke_FF_D4_RR3.opus
</region>

<region>
hivel=103
key=D#5
lovel=78
offset=652
sample=Tenors_Solo_Drum_5_PuffyMallets_Buzz_Stroke_F_D4_RR3.opus
</region>

<region>
hivel=25
key=E5
lovel=0
offset=4270
sample=Tenors_Solo_Drum_4_PuffyMallets_Buzz_Stroke_P_D4_RR3.opus
</region>

<region>
hivel=51
key=E5
lovel=26
offset=2546
sample=Tenors_Solo_Drum_4_PuffyMallets_Buzz_Stroke_MP_D4_RR3.opus
</region>

<region>
hivel=77
key=E5
lovel=52
offset=820
sample=Tenors_Solo_Drum_4_PuffyMallets_Buzz_Stroke_MF_D4_RR3.opus
</region>

<region>
hivel=127
key=E5
lovel=104
offset=768
sample=Tenors_Solo_Drum_4_PuffyMallets_Buzz_Stroke_FF_D4_RR3.opus
</region>

<region>
hivel=103
key=E5
lovel=78
offset=820
sample=Tenors_Solo_Drum_4_PuffyMallets_Buzz_Stroke_F_D4_RR3.opus
</region>

<region>
hivel=25
key=F5
lovel=0
offset=3471
sample=Tenors_Solo_Drum_3_PuffyMallets_Buzz_Stroke_P_D4_RR3.opus
</region>

<region>
hivel=51
key=F5
lovel=26
offset=3303
sample=Tenors_Solo_Drum_3_PuffyMallets_Buzz_Stroke_MP_D4_RR3.opus
</region>

<region>
hivel=77
key=F5
lovel=52
offset=859
sample=Tenors_Solo_Drum_3_PuffyMallets_Buzz_Stroke_MF_D4_RR3.opus
</region>

<region>
hivel=127
key=F5
lovel=104
offset=717
sample=Tenors_Solo_Drum_3_PuffyMallets_Buzz_Stroke_FF_D4_RR3.opus
</region>

<region>
hivel=103
key=F5
lovel=78
offset=859
sample=Tenors_Solo_Drum_3_PuffyMallets_Buzz_Stroke_F_D4_RR3.opus
</region>

<region>
hivel=25
key=F#5
lovel=0
offset=4448
sample=Tenors_Solo_Drum_2_PuffyMallets_Buzz_Stroke_P_D4_RR3.opus
</region>

<region>
hivel=51
key=F#5
lovel=26
offset=2925
sample=Tenors_Solo_Drum_2_PuffyMallets_Buzz_Stroke_MP_D4_RR3.opus
</region>

<region>
hivel=77
key=F#5
lovel=52
offset=3414
sample=Tenors_Solo_Drum_2_PuffyMallets_Buzz_Stroke_MF_D4_RR3.opus
</region>

<region>
hivel=127
key=F#5
lovel=104
offset=743
sample=Tenors_Solo_Drum_2_PuffyMallets_Buzz_Stroke_FF_D4_RR3.opus
</region>

<region>
hivel=103
key=F#5
lovel=78
offset=789
sample=Tenors_Solo_Drum_2_PuffyMallets_Buzz_Stroke_F_D4_RR3.opus
</region>

<region>
hivel=25
key=G5
lovel=0
offset=3979
sample=Tenors_Solo_Drum_1_PuffyMallets_Buzz_Stroke_P_D4_RR3.opus
</region>

<region>
hivel=51
key=G5
lovel=26
offset=4565
sample=Tenors_Solo_Drum_1_PuffyMallets_Buzz_Stroke_MP_D4_RR3.opus
</region>

<region>
hivel=77
key=G5
lovel=52
offset=3726
sample=Tenors_Solo_Drum_1_PuffyMallets_Buzz_Stroke_MF_D4_RR3.opus
</region>

<region>
hivel=127
key=G5
lovel=104
offset=667
sample=Tenors_Solo_Drum_1_PuffyMallets_Buzz_Stroke_FF_D4_RR3.opus
</region>

<region>
hivel=103
key=G5
lovel=78
offset=4105
sample=Tenors_Solo_Drum_1_PuffyMallets_Buzz_Stroke_F_D4_RR3.opus
</region>
</group>

<group>
ampeg_release=0.05
color=red
group_label=Rolls_RR1_0-25
seq_length=2
seq_position=1
xf_cccurve=gain
xfin_hicc1=25
xfout_hicc1=50
xfout_locc1=25

<region>
hivel=127
key=D2
loop_end=116398
loop_mode=loop_continuous
loop_start=21631
loop_xfade=21631
lovel=0
offset=6167
sample=Tenors_Solo_Drum_6_PuffyMallets_Buzz_Roll_P_D4_RR1.opus
</region>

<region>
hivel=127
key=D#2
loop_end=116398
loop_mode=loop_continuous
loop_start=21631
loop_xfade=21631
lovel=0
offset=3586
sample=Tenors_Solo_Drum_5_PuffyMallets_Buzz_Roll_P_D4_RR1.opus
</region>

<region>
hivel=127
key=E2
loop_end=113724
loop_mode=loop_continuous
loop_start=21134
loop_xfade=21134
lovel=0
offset=3789
sample=Tenors_Solo_Drum_4_PuffyMallets_Buzz_Roll_P_D4_RR1.opus
</region>

<region>
hivel=127
key=F2
loop_end=115187
loop_mode=loop_continuous
loop_start=21406
loop_xfade=21406
lovel=0
offset=5081
sample=Tenors_Solo_Drum_3_PuffyMallets_Buzz_Roll_P_D4_RR1.opus
</region>

<region>
hivel=127
key=F#2
loop_end=116398
loop_mode=loop_continuous
loop_start=21631
loop_xfade=21631
lovel=0
offset=3157
sample=Tenors_Solo_Drum_2_PuffyMallets_Buzz_Roll_P_D4_RR1.opus
</region>

<region>
hivel=127
key=G2
loop_end=116398
loop_mode=loop_continuous
loop_start=21631
loop_xfade=21631
lovel=0
offset=4221
sample=Tenors_Solo_Drum_1_PuffyMallets_Buzz_Roll_P_D4_RR1.opus
</region>
</group>

<group>
ampeg_release=0.05
color=red
group_label=Rolls_RR1_26-51
seq_length=2
seq_position=1
xfin_hicc1=51
xfin_locc1=26
xfout_hicc1=76
xfout_locc1=51

<region>
hivel=127
key=D2
loop_end=115042
loop_mode=loop_continuous
loop_start=21379
loop_xfade=21379
lovel=0
offset=797
sample=Tenors_Solo_Drum_6_PuffyMallets_Buzz_Roll_MP_D4_RR1.opus
</region>

<region>
hivel=127
key=D#2
loop_end=114265
loop_mode=loop_continuous
loop_start=21235
loop_xfade=21235
lovel=0
offset=625
sample=Tenors_Solo_Drum_5_PuffyMallets_Buzz_Roll_MP_D4_RR1.opus
</region>

<region>
hivel=127
key=E2
loop_end=114576
loop_mode=loop_continuous
loop_start=21293
loop_xfade=21293
lovel=0
offset=624
sample=Tenors_Solo_Drum_4_PuffyMallets_Buzz_Roll_MP_D4_RR1.opus
</region>

<region>
hivel=127
key=F2
loop_end=114609
loop_mode=loop_continuous
loop_start=21299
loop_xfade=21299
lovel=0
offset=708
sample=Tenors_Solo_Drum_3_PuffyMallets_Buzz_Roll_MP_D4_RR1.opus
</region>

<region>
hivel=127
key=F#2
loop_end=114676
loop_mode=loop_continuous
loop_start=21311
loop_xfade=21311
lovel=0
offset=2253
sample=Tenors_Solo_Drum_2_PuffyMallets_Buzz_Roll_MP_D4_RR1.opus
</region>

<region>
hivel=127
key=G2
loop_end=116398
loop_mode=loop_continuous
loop_start=21631
loop_xfade=21631
lovel=0
offset=4259
sample=Tenors_Solo_Drum_1_PuffyMallets_Buzz_Roll_MP_D4_RR1.opus
</region>
</group>

<group>
ampeg_release=0.05
color=red
group_label=Rolls_RR1_52-77
seq_length=2
seq_position=1
xfin_hicc1=77
xfin_locc1=52
xfout_hicc1=102
xfout_locc1=77

<region>
hivel=127
key=D2
loop_end=114585
loop_mode=loop_continuous
loop_start=21294
loop_xfade=21294
lovel=0
offset=620
sample=Tenors_Solo_Drum_6_PuffyMallets_Buzz_Roll_MF_D4_RR1.opus
</region>

<region>
hivel=127
key=D#2
loop_end=115054
loop_mode=loop_continuous
loop_start=21381
loop_xfade=21381
lovel=0
offset=601
sample=Tenors_Solo_Drum_5_PuffyMallets_Buzz_Roll_MF_D4_RR1.opus
</region>

<region>
hivel=127
key=E2
loop_end=114776
loop_mode=loop_continuous
loop_start=21330
loop_xfade=21330
lovel=0
offset=752
sample=Tenors_Solo_Drum_4_PuffyMallets_Buzz_Roll_MF_D4_RR1.opus
</region>

<region>
hivel=127
key=F2
loop_end=115031
loop_mode=loop_continuous
loop_start=21377
loop_xfade=21377
lovel=0
offset=861
sample=Tenors_Solo_Drum_3_PuffyMallets_Buzz_Roll_MF_D4_RR1.opus
</region>

<region>
hivel=127
key=F#2
loop_end=115210
loop_mode=loop_continuous
loop_start=21411
loop_xfade=21411
lovel=0
offset=1862
sample=Tenors_Solo_Drum_2_PuffyMallets_Buzz_Roll_MF_D4_RR1.opus
</region>

<region>
hivel=127
key=G2
loop_end=114328
loop_mode=loop_continuous
loop_start=21247
loop_xfade=21247
lovel=0
offset=4507
sample=Tenors_Solo_Drum_1_PuffyMallets_Buzz_Roll_MF_D4_RR1.opus
</region>
</group>

<group>
ampeg_release=0.05
color=red
group_label=Rolls_RR1_78-103
seq_length=2
seq_position=1
xfin_hicc1=103
xfin_locc1=78
xfout_hicc1=127
xfout_locc1=103

<region>
hivel=127
key=D2
loop_end=114794
loop_mode=loop_continuous
loop_start=21333
loop_xfade=21333
lovel=0
offset=641
sample=Tenors_Solo_Drum_6_PuffyMallets_Buzz_Roll_F_D4_RR1.opus
</region>

<region>
hivel=127
key=D#2
loop_end=114887
loop_mode=loop_continuous
loop_start=21351
loop_xfade=21351
lovel=0
offset=864
sample=Tenors_Solo_Drum_5_PuffyMallets_Buzz_Roll_F_D4_RR1.opus
</region>

<region>
hivel=127
key=E2
loop_end=114198
loop_mode=loop_continuous
loop_start=21222
loop_xfade=21222
lovel=0
offset=760
sample=Tenors_Solo_Drum_4_PuffyMallets_Buzz_Roll_F_D4_RR1.opus
</region>

<region>
hivel=127
key=F2
loop_end=114776
loop_mode=loop_continuous
loop_start=21330
loop_xfade=21330
lovel=0
offset=808
sample=Tenors_Solo_Drum_3_PuffyMallets_Buzz_Roll_F_D4_RR1.opus
</region>

<region>
hivel=127
key=F#2
loop_end=114360
loop_mode=loop_continuous
loop_start=21253
loop_xfade=21253
lovel=0
offset=724
sample=Tenors_Solo_Drum_2_PuffyMallets_Buzz_Roll_F_D4_RR1.opus
</region>

<region>
hivel=127
key=G2
loop_end=114851
loop_mode=loop_continuous
loop_start=21344
loop_xfade=21344
lovel=0
offset=3724
sample=Tenors_Solo_Drum_1_PuffyMallets_Buzz_Roll_F_D4_RR1.opus
</region>
</group>

<group>
ampeg_release=0.05
color=red
group_label=Rolls_RR1_104-127
seq_length=2
seq_position=1
xfin_hicc1=127
xfin_locc1=104
xfout_hicc1=127
xfout_locc1=127

<region>
hivel=127
key=D2
loop_end=114860
loop_mode=loop_continuous
loop_start=21345
loop_xfade=21345
lovel=0
offset=750
sample=Tenors_Solo_Drum_6_PuffyMallets_Buzz_Roll_FF_D4_RR1.opus
</region>

<region>
hivel=127
key=D#2
loop_end=115535
loop_mode=loop_continuous
loop_start=21471
loop_xfade=21471
lovel=0
offset=772
sample=Tenors_Solo_Drum_5_PuffyMallets_Buzz_Roll_FF_D4_RR1.opus
</region>

<region>
hivel=127
key=E2
loop_end=115112
loop_mode=loop_continuous
loop_start=21392
loop_xfade=21392
lovel=0
offset=745
sample=Tenors_Solo_Drum_4_PuffyMallets_Buzz_Roll_FF_D4_RR1.opus
</region>

<region>
hivel=127
key=F2
loop_end=115150
loop_mode=loop_continuous
loop_start=21399
loop_xfade=21399
lovel=0
offset=745
sample=Tenors_Solo_Drum_3_PuffyMallets_Buzz_Roll_FF_D4_RR1.opus
</region>

<region>
hivel=127
key=F#2
loop_end=115537
loop_mode=loop_continuous
loop_start=21471
loop_xfade=21471
lovel=0
offset=766
sample=Tenors_Solo_Drum_2_PuffyMallets_Buzz_Roll_FF_D4_RR1.opus
</region>

<region>
hivel=127
key=G2
loop_end=115202
loop_mode=loop_continuous
loop_start=21409
loop_xfade=21409
lovel=0
offset=1833
sample=Tenors_Solo_Drum_1_PuffyMallets_Buzz_Roll_FF_D4_RR1.opus
</region>
</group>

<group>
ampeg_release=0.05
color=red
group_label=Rolls_RR2_0-25
seq_length=2
seq_position=2
xf_cccurve=gain
xfin_hicc1=25
xfout_hicc1=50
xfout_locc1=25

<region>
hivel=127
key=D2
loop_end=116398
loop_mode=loop_continuous
loop_start=21631
loop_xfade=21631
lovel=0
offset=864
sample=Tenors_Solo_Drum_6_PuffyMallets_Buzz_Roll_P_D4_RR2.opus
</region>

<region>
hivel=127
key=D#2
loop_end=116398
loop_mode=loop_continuous
loop_start=21631
loop_xfade=21631
lovel=0
offset=3519
sample=Tenors_Solo_Drum_5_PuffyMallets_Buzz_Roll_P_D4_RR2.opus
</region>

<region>
hivel=127
key=E2
loop_end=116398
loop_mode=loop_continuous
loop_start=21631
loop_xfade=21631
lovel=0
offset=3360
sample=Tenors_Solo_Drum_4_PuffyMallets_Buzz_Roll_P_D4_RR2.opus
</region>

<region>
hivel=127
key=F2
loop_end=116394
loop_mode=loop_continuous
loop_start=21630
loop_xfade=21630
lovel=0
offset=4993
sample=Tenors_Solo_Drum_3_PuffyMallets_Buzz_Roll_P_D4_RR2.opus
</region>

<region>
hivel=127
key=F#2
loop_end=116398
loop_mode=loop_continuous
loop_start=21631
loop_xfade=21631
lovel=0
offset=4050
sample=Tenors_Solo_Drum_2_PuffyMallets_Buzz_Roll_P_D4_RR2.opus
</region>

<region>
hivel=127
key=G2
loop_end=116398
loop_mode=loop_continuous
loop_start=21631
loop_xfade=21631
lovel=0
offset=4810
sample=Tenors_Solo_Drum_1_PuffyMallets_Buzz_Roll_P_D4_RR2.opus
</region>
</group>

<group>
ampeg_release=0.05
color=red
group_label=Rolls_RR2_26-51
seq_length=2
seq_position=2
xfin_hicc1=51
xfin_locc1=26
xfout_hicc1=76
xfout_locc1=51

<region>
hivel=127
key=D2
loop_end=114310
loop_mode=loop_continuous
loop_start=21243
loop_xfade=21243
lovel=0
offset=708
sample=Tenors_Solo_Drum_6_PuffyMallets_Buzz_Roll_MP_D4_RR2.opus
</region>

<region>
hivel=127
key=D#2
loop_end=114281
loop_mode=loop_continuous
loop_start=21238
loop_xfade=21238
lovel=0
offset=658
sample=Tenors_Solo_Drum_5_PuffyMallets_Buzz_Roll_MP_D4_RR2.opus
</region>

<region>
hivel=127
key=E2
loop_end=114720
loop_mode=loop_continuous
loop_start=21320
loop_xfade=21320
lovel=0
offset=624
sample=Tenors_Solo_Drum_4_PuffyMallets_Buzz_Roll_MP_D4_RR2.opus
</region>

<region>
hivel=127
key=F2
loop_end=115209
loop_mode=loop_continuous
loop_start=21410
loop_xfade=21410
lovel=0
offset=2586
sample=Tenors_Solo_Drum_3_PuffyMallets_Buzz_Roll_MP_D4_RR2.opus
</region>

<region>
hivel=127
key=F#2
loop_end=113930
loop_mode=loop_continuous
loop_start=21173
loop_xfade=21173
lovel=0
offset=4474
sample=Tenors_Solo_Drum_2_PuffyMallets_Buzz_Roll_MP_D4_RR2.opus
</region>

<region>
hivel=127
key=G2
loop_end=116318
loop_mode=loop_continuous
loop_start=21616
loop_xfade=21616
lovel=0
offset=3538
sample=Tenors_Solo_Drum_1_PuffyMallets_Buzz_Roll_MP_D4_RR2.opus
</region>
</group>

<group>
ampeg_release=0.05
color=red
group_label=Rolls_RR2_52-77
seq_length=2
seq_position=2
xfin_hicc1=77
xfin_locc1=52
xfout_hicc1=102
xfout_locc1=77

<region>
hivel=127
key=D2
loop_end=114980
loop_mode=loop_continuous
loop_start=21368
loop_xfade=21368
lovel=0
offset=697
sample=Tenors_Solo_Drum_6_PuffyMallets_Buzz_Roll_MF_D4_RR2.opus
</region>

<region>
hivel=127
key=D#2
loop_end=115095
loop_mode=loop_continuous
loop_start=21389
loop_xfade=21389
lovel=0
offset=627
sample=Tenors_Solo_Drum_5_PuffyMallets_Buzz_Roll_MF_D4_RR2.opus
</region>

<region>
hivel=127
key=E2
loop_end=114582
loop_mode=loop_continuous
loop_start=21294
loop_xfade=21294
lovel=0
offset=755
sample=Tenors_Solo_Drum_4_PuffyMallets_Buzz_Roll_MF_D4_RR2.opus
</region>

<region>
hivel=127
key=F2
loop_end=114971
loop_mode=loop_continuous
loop_start=21366
loop_xfade=21366
lovel=0
offset=651
sample=Tenors_Solo_Drum_3_PuffyMallets_Buzz_Roll_MF_D4_RR2.opus
</region>

<region>
hivel=127
key=F#2
loop_end=114969
loop_mode=loop_continuous
loop_start=21366
loop_xfade=21366
lovel=0
offset=3266
sample=Tenors_Solo_Drum_2_PuffyMallets_Buzz_Roll_MF_D4_RR2.opus
</region>

<region>
hivel=127
key=G2
loop_end=114718
loop_mode=loop_continuous
loop_start=21319
loop_xfade=21319
lovel=0
offset=3617
sample=Tenors_Solo_Drum_1_PuffyMallets_Buzz_Roll_MF_D4_RR2.opus
</region>
</group>

<group>
ampeg_release=0.05
color=red
group_label=Rolls_RR2_78-103
seq_length=2
seq_position=2
xfin_hicc1=103
xfin_locc1=78
xfout_hicc1=127
xfout_locc1=103

<region>
hivel=127
key=D2
loop_end=113722
loop_mode=loop_continuous
loop_start=21134
loop_xfade=21134
lovel=0
offset=744
sample=Tenors_Solo_Drum_6_PuffyMallets_Buzz_Roll_F_D4_RR2.opus
</region>

<region>
hivel=127
key=D#2
loop_end=115233
loop_mode=loop_continuous
loop_start=21415
loop_xfade=21415
lovel=0
offset=750
sample=Tenors_Solo_Drum_5_PuffyMallets_Buzz_Roll_F_D4_RR2.opus
</region>

<region>
hivel=127
key=E2
loop_end=114619
loop_mode=loop_continuous
loop_start=21301
loop_xfade=21301
lovel=0
offset=866
sample=Tenors_Solo_Drum_4_PuffyMallets_Buzz_Roll_F_D4_RR2.opus
</region>

<region>
hivel=127
key=F2
loop_end=114856
loop_mode=loop_continuous
loop_start=21345
loop_xfade=21345
lovel=0
offset=754
sample=Tenors_Solo_Drum_3_PuffyMallets_Buzz_Roll_F_D4_RR2.opus
</region>

<region>
hivel=127
key=F#2
loop_end=114563
loop_mode=loop_continuous
loop_start=21290
loop_xfade=21290
lovel=0
offset=757
sample=Tenors_Solo_Drum_2_PuffyMallets_Buzz_Roll_F_D4_RR2.opus
</region>

<region>
hivel=127
key=G2
loop_end=114587
loop_mode=loop_continuous
loop_start=21295
loop_xfade=21295
lovel=0
offset=5401
sample=Tenors_Solo_Drum_1_PuffyMallets_Buzz_Roll_F_D4_RR2.opus
</region>
</group>

<group>
ampeg_release=0.05
color=red
group_label=Rolls_RR2_104-127
seq_length=2
seq_position=2
xfin_hicc1=127
xfin_locc1=104
xfout_hicc1=127
xfout_locc1=127

<region>
hivel=127
key=D2
loop_end=113922
loop_mode=loop_continuous
loop_start=21171
loop_xfade=21171
lovel=0
offset=740
sample=Tenors_Solo_Drum_6_PuffyMallets_Buzz_Roll_FF_D4_RR2.opus
</region>

<region>
hivel=127
key=D#2
loop_end=115017
loop_mode=loop_continuous
loop_start=21375
loop_xfade=21375
lovel=0
offset=739
sample=Tenors_Solo_Drum_5_PuffyMallets_Buzz_Roll_FF_D4_RR2.opus
</region>

<region>
hivel=127
key=E2
loop_end=114117
loop_mode=loop_continuous
loop_start=21207
loop_xfade=21207
lovel=0
offset=763
sample=Tenors_Solo_Drum_4_PuffyMallets_Buzz_Roll_FF_D4_RR2.opus
</region>

<region>
hivel=127
key=F2
loop_end=114152
loop_mode=loop_continuous
loop_start=21214
loop_xfade=21214
lovel=0
offset=604
sample=Tenors_Solo_Drum_3_PuffyMallets_Buzz_Roll_FF_D4_RR2.opus
</region>

<region>
hivel=127
key=F#2
loop_end=115233
loop_mode=loop_continuous
loop_start=21415
loop_xfade=21415
lovel=0
offset=725
sample=Tenors_Solo_Drum_2_PuffyMallets_Buzz_Roll_FF_D4_RR2.opus
</region>

<region>
hivel=127
key=G2
loop_end=115100
loop_mode=loop_continuous
loop_start=21390
loop_xfade=21390
lovel=0
offset=655
sample=Tenors_Solo_Drum_1_PuffyMallets_Buzz_Roll_FF_D4_RR2.opus
</region>
</group>

<group>
ampeg_attack=0.01
ampeg_release=0.65
color=red
group_label=Rolls_Rel_RR1_0-25
offset=280000
seq_length=2
seq_position=1
trigger=release
xf_cccurve=gain
xfin_hicc1=25
xfout_hicc1=50
xfout_locc1=25

<region>
hivel=127
key=D2
lovel=0
new_opcode_1=280000
offset=6167
sample=Tenors_Solo_Drum_6_PuffyMallets_Buzz_Roll_P_D4_RR1.opus
</region>

<region>
hivel=127
key=D#2
lovel=0
new_opcode_1=280000
offset=3586
sample=Tenors_Solo_Drum_5_PuffyMallets_Buzz_Roll_P_D4_RR1.opus
</region>

<region>
hivel=127
key=E2
lovel=0
new_opcode_1=280000
offset=3789
sample=Tenors_Solo_Drum_4_PuffyMallets_Buzz_Roll_P_D4_RR1.opus
</region>

<region>
hivel=127
key=F2
lovel=0
new_opcode_1=280000
offset=5081
sample=Tenors_Solo_Drum_3_PuffyMallets_Buzz_Roll_P_D4_RR1.opus
</region>

<region>
hivel=127
key=F#2
lovel=0
new_opcode_1=280000
offset=3157
sample=Tenors_Solo_Drum_2_PuffyMallets_Buzz_Roll_P_D4_RR1.opus
</region>

<region>
hivel=127
key=G2
lovel=0
new_opcode_1=280000
offset=4221
sample=Tenors_Solo_Drum_1_PuffyMallets_Buzz_Roll_P_D4_RR1.opus
</region>
</group>

<group>
ampeg_attack=0.01
ampeg_release=0.65
color=red
group_label=Rolls_Rel_RR1_26-51
offset=280000
seq_length=2
seq_position=1
trigger=release
xfin_hicc1=51
xfin_locc1=26
xfout_hicc1=76
xfout_locc1=51

<region>
hivel=127
key=D2
lovel=0
new_opcode_1=280000
offset=797
sample=Tenors_Solo_Drum_6_PuffyMallets_Buzz_Roll_MP_D4_RR1.opus
</region>

<region>
hivel=127
key=D#2
lovel=0
new_opcode_1=280000
offset=625
sample=Tenors_Solo_Drum_5_PuffyMallets_Buzz_Roll_MP_D4_RR1.opus
</region>

<region>
hivel=127
key=E2
lovel=0
new_opcode_1=280000
offset=624
sample=Tenors_Solo_Drum_4_PuffyMallets_Buzz_Roll_MP_D4_RR1.opus
</region>

<region>
hivel=127
key=F2
lovel=0
new_opcode_1=280000
offset=708
sample=Tenors_Solo_Drum_3_PuffyMallets_Buzz_Roll_MP_D4_RR1.opus
</region>

<region>
hivel=127
key=F#2
lovel=0
new_opcode_1=280000
offset=2253
sample=Tenors_Solo_Drum_2_PuffyMallets_Buzz_Roll_MP_D4_RR1.opus
</region>

<region>
hivel=127
key=G2
lovel=0
new_opcode_1=280000
offset=4259
sample=Tenors_Solo_Drum_1_PuffyMallets_Buzz_Roll_MP_D4_RR1.opus
</region>
</group>

<group>
ampeg_attack=0.01
ampeg_release=0.65
color=red
group_label=Rolls_Rel_RR1_52-77
offset=280000
seq_length=2
seq_position=1
trigger=release
xfin_hicc1=77
xfin_locc1=52
xfout_hicc1=102
xfout_locc1=77

<region>
hivel=127
key=D2
lovel=0
new_opcode_1=280000
offset=620
sample=Tenors_Solo_Drum_6_PuffyMallets_Buzz_Roll_MF_D4_RR1.opus
</region>

<region>
hivel=127
key=D#2
lovel=0
new_opcode_1=280000
offset=601
sample=Tenors_Solo_Drum_5_PuffyMallets_Buzz_Roll_MF_D4_RR1.opus
</region>

<region>
hivel=127
key=E2
lovel=0
new_opcode_1=280000
offset=752
sample=Tenors_Solo_Drum_4_PuffyMallets_Buzz_Roll_MF_D4_RR1.opus
</region>

<region>
hivel=127
key=F2
lovel=0
new_opcode_1=280000
offset=861
sample=Tenors_Solo_Drum_3_PuffyMallets_Buzz_Roll_MF_D4_RR1.opus
</region>

<region>
hivel=127
key=F#2
lovel=0
new_opcode_1=280000
offset=1862
sample=Tenors_Solo_Drum_2_PuffyMallets_Buzz_Roll_MF_D4_RR1.opus
</region>

<region>
hivel=127
key=G2
lovel=0
new_opcode_1=280000
offset=4507
sample=Tenors_Solo_Drum_1_PuffyMallets_Buzz_Roll_MF_D4_RR1.opus
</region>
</group>

<group>
ampeg_attack=0.01
ampeg_release=0.65
color=red
group_label=Rolls_Rel_RR1_78-103
offset=280000
seq_length=2
seq_position=1
trigger=release
xfin_hicc1=103
xfin_locc1=78
xfout_hicc1=127
xfout_locc1=103

<region>
hivel=127
key=D2
lovel=0
new_opcode_1=280000
offset=641
sample=Tenors_Solo_Drum_6_PuffyMallets_Buzz_Roll_F_D4_RR1.opus
</region>

<region>
hivel=127
key=D#2
lovel=0
new_opcode_1=280000
offset=864
sample=Tenors_Solo_Drum_5_PuffyMallets_Buzz_Roll_F_D4_RR1.opus
</region>

<region>
hivel=127
key=E2
lovel=0
new_opcode_1=280000
offset=760
sample=Tenors_Solo_Drum_4_PuffyMallets_Buzz_Roll_F_D4_RR1.opus
</region>

<region>
hivel=127
key=F2
lovel=0
new_opcode_1=280000
offset=808
sample=Tenors_Solo_Drum_3_PuffyMallets_Buzz_Roll_F_D4_RR1.opus
</region>

<region>
hivel=127
key=F#2
lovel=0
new_opcode_1=280000
offset=724
sample=Tenors_Solo_Drum_2_PuffyMallets_Buzz_Roll_F_D4_RR1.opus
</region>

<region>
hivel=127
key=G2
lovel=0
new_opcode_1=280000
offset=3724
sample=Tenors_Solo_Drum_1_PuffyMallets_Buzz_Roll_F_D4_RR1.opus
</region>
</group>

<group>
ampeg_attack=0.01
ampeg_release=0.65
color=red
group_label=Rolls_Rel_RR1_104-127
offset=280000
seq_length=2
seq_position=1
trigger=release
xfin_hicc1=127
xfin_locc1=104
xfout_hicc1=127
xfout_locc1=127

<region>
hivel=127
key=D2
lovel=0
new_opcode_1=280000
offset=750
sample=Tenors_Solo_Drum_6_PuffyMallets_Buzz_Roll_FF_D4_RR1.opus
</region>

<region>
hivel=127
key=D#2
lovel=0
new_opcode_1=280000
offset=772
sample=Tenors_Solo_Drum_5_PuffyMallets_Buzz_Roll_FF_D4_RR1.opus
</region>

<region>
hivel=127
key=E2
lovel=0
new_opcode_1=280000
offset=745
sample=Tenors_Solo_Drum_4_PuffyMallets_Buzz_Roll_FF_D4_RR1.opus
</region>

<region>
hivel=127
key=F2
lovel=0
new_opcode_1=280000
offset=745
sample=Tenors_Solo_Drum_3_PuffyMallets_Buzz_Roll_FF_D4_RR1.opus
</region>

<region>
hivel=127
key=F#2
lovel=0
new_opcode_1=280000
offset=766
sample=Tenors_Solo_Drum_2_PuffyMallets_Buzz_Roll_FF_D4_RR1.opus
</region>

<region>
hivel=127
key=G2
lovel=0
new_opcode_1=280000
offset=1833
sample=Tenors_Solo_Drum_1_PuffyMallets_Buzz_Roll_FF_D4_RR1.opus
</region>
</group>

<group>
ampeg_attack=0.01
ampeg_release=0.65
color=red
group_label=Rolls_Rel_RR2_0-25
offset=280000
seq_length=2
seq_position=2
trigger=release
xf_cccurve=gain
xfin_hicc1=25
xfout_hicc1=50
xfout_locc1=25

<region>
hivel=127
key=D2
lovel=0
new_opcode_1=280000
offset=864
sample=Tenors_Solo_Drum_6_PuffyMallets_Buzz_Roll_P_D4_RR2.opus
</region>

<region>
hivel=127
key=D#2
lovel=0
new_opcode_1=280000
offset=3519
sample=Tenors_Solo_Drum_5_PuffyMallets_Buzz_Roll_P_D4_RR2.opus
</region>

<region>
hivel=127
key=E2
lovel=0
new_opcode_1=280000
offset=3360
sample=Tenors_Solo_Drum_4_PuffyMallets_Buzz_Roll_P_D4_RR2.opus
</region>

<region>
hivel=127
key=F2
lovel=0
new_opcode_1=280000
offset=4993
sample=Tenors_Solo_Drum_3_PuffyMallets_Buzz_Roll_P_D4_RR2.opus
</region>

<region>
hivel=127
key=F#2
lovel=0
new_opcode_1=280000
offset=4050
sample=Tenors_Solo_Drum_2_PuffyMallets_Buzz_Roll_P_D4_RR2.opus
</region>

<region>
hivel=127
key=G2
lovel=0
new_opcode_1=280000
offset=4810
sample=Tenors_Solo_Drum_1_PuffyMallets_Buzz_Roll_P_D4_RR2.opus
</region>
</group>

<group>
ampeg_attack=0.01
ampeg_release=0.65
color=red
group_label=Rolls_Rel_RR2_26-51
offset=280000
seq_length=2
seq_position=2
trigger=release
xfin_hicc1=51
xfin_locc1=26
xfout_hicc1=76
xfout_locc1=51

<region>
hivel=127
key=D2
lovel=0
new_opcode_1=280000
offset=708
sample=Tenors_Solo_Drum_6_PuffyMallets_Buzz_Roll_MP_D4_RR2.opus
</region>

<region>
hivel=127
key=D#2
lovel=0
new_opcode_1=280000
offset=658
sample=Tenors_Solo_Drum_5_PuffyMallets_Buzz_Roll_MP_D4_RR2.opus
</region>

<region>
hivel=127
key=E2
lovel=0
new_opcode_1=280000
offset=624
sample=Tenors_Solo_Drum_4_PuffyMallets_Buzz_Roll_MP_D4_RR2.opus
</region>

<region>
hivel=127
key=F2
lovel=0
new_opcode_1=280000
offset=2586
sample=Tenors_Solo_Drum_3_PuffyMallets_Buzz_Roll_MP_D4_RR2.opus
</region>

<region>
hivel=127
key=F#2
lovel=0
new_opcode_1=280000
offset=4474
sample=Tenors_Solo_Drum_2_PuffyMallets_Buzz_Roll_MP_D4_RR2.opus
</region>

<region>
hivel=127
key=G2
lovel=0
new_opcode_1=280000
offset=3538
sample=Tenors_Solo_Drum_1_PuffyMallets_Buzz_Roll_MP_D4_RR2.opus
</region>
</group>

<group>
ampeg_attack=0.01
ampeg_release=0.65
color=red
group_label=Rolls_Rel_RR2_52-77
offset=280000
seq_length=2
seq_position=2
trigger=release
xfin_hicc1=77
xfin_locc1=52
xfout_hicc1=102
xfout_locc1=77

<region>
hivel=127
key=D2
lovel=0
new_opcode_1=280000
offset=697
sample=Tenors_Solo_Drum_6_PuffyMallets_Buzz_Roll_MF_D4_RR2.opus
</region>

<region>
hivel=127
key=D#2
lovel=0
new_opcode_1=280000
offset=627
sample=Tenors_Solo_Drum_5_PuffyMallets_Buzz_Roll_MF_D4_RR2.opus
</region>

<region>
hivel=127
key=E2
lovel=0
new_opcode_1=280000
offset=755
sample=Tenors_Solo_Drum_4_PuffyMallets_Buzz_Roll_MF_D4_RR2.opus
</region>

<region>
hivel=127
key=F2
lovel=0
new_opcode_1=280000
offset=651
sample=Tenors_Solo_Drum_3_PuffyMallets_Buzz_Roll_MF_D4_RR2.opus
</region>

<region>
hivel=127
key=F#2
lovel=0
new_opcode_1=280000
offset=3266
sample=Tenors_Solo_Drum_2_PuffyMallets_Buzz_Roll_MF_D4_RR2.opus
</region>

<region>
hivel=127
key=G2
lovel=0
new_opcode_1=280000
offset=3617
sample=Tenors_Solo_Drum_1_PuffyMallets_Buzz_Roll_MF_D4_RR2.opus
</region>
</group>

<group>
ampeg_attack=0.01
ampeg_release=0.65
color=red
group_label=Rolls_Rel_RR2_78-103
offset=280000
seq_length=2
seq_position=2
trigger=release
xfin_hicc1=103
xfin_locc1=78
xfout_hicc1=127
xfout_locc1=103

<region>
hivel=127
key=D2
lovel=0
new_opcode_1=280000
offset=744
sample=Tenors_Solo_Drum_6_PuffyMallets_Buzz_Roll_F_D4_RR2.opus
</region>

<region>
hivel=127
key=D#2
lovel=0
new_opcode_1=280000
offset=750
sample=Tenors_Solo_Drum_5_PuffyMallets_Buzz_Roll_F_D4_RR2.opus
</region>

<region>
hivel=127
key=E2
lovel=0
new_opcode_1=280000
offset=866
sample=Tenors_Solo_Drum_4_PuffyMallets_Buzz_Roll_F_D4_RR2.opus
</region>

<region>
hivel=127
key=F2
lovel=0
new_opcode_1=280000
offset=754
sample=Tenors_Solo_Drum_3_PuffyMallets_Buzz_Roll_F_D4_RR2.opus
</region>

<region>
hivel=127
key=F#2
lovel=0
new_opcode_1=280000
offset=757
sample=Tenors_Solo_Drum_2_PuffyMallets_Buzz_Roll_F_D4_RR2.opus
</region>

<region>
hivel=127
key=G2
lovel=0
new_opcode_1=280000
offset=5401
sample=Tenors_Solo_Drum_1_PuffyMallets_Buzz_Roll_F_D4_RR2.opus
</region>
</group>

<group>
ampeg_attack=0.01
ampeg_release=0.65
color=red
group_label=Rolls_Rel_RR2_104-127
offset=280000
seq_length=2
seq_position=2
trigger=release
xfin_hicc1=127
xfin_locc1=104
xfout_hicc1=127
xfout_locc1=127

<region>
hivel=127
key=D2
lovel=0
new_opcode_1=280000
offset=740
sample=Tenors_Solo_Drum_6_PuffyMallets_Buzz_Roll_FF_D4_RR2.opus
</region>

<region>
hivel=127
key=D#2
lovel=0
new_opcode_1=280000
offset=739
sample=Tenors_Solo_Drum_5_PuffyMallets_Buzz_Roll_FF_D4_RR2.opus
</region>

<region>
hivel=127
key=E2
lovel=0
new_opcode_1=280000
offset=763
sample=Tenors_Solo_Drum_4_PuffyMallets_Buzz_Roll_FF_D4_RR2.opus
</region>

<region>
hivel=127
key=F2
lovel=0
new_opcode_1=280000
offset=604
sample=Tenors_Solo_Drum_3_PuffyMallets_Buzz_Roll_FF_D4_RR2.opus
</region>

<region>
hivel=127
key=F#2
lovel=0
new_opcode_1=280000
offset=725
sample=Tenors_Solo_Drum_2_PuffyMallets_Buzz_Roll_FF_D4_RR2.opus
</region>

<region>
hivel=127
key=G2
lovel=0
new_opcode_1=280000
offset=655
sample=Tenors_Solo_Drum_1_PuffyMallets_Buzz_Roll_FF_D4_RR2.opus
</region>
</group>